<?xml version="1.0" standalone="no"?>
<!DOCTYPE svg PUBLIC "-//W3C//DTD SVG 1.1//EN" "http://www.w3.org/Graphics/SVG/1.1/DTD/svg11.dtd" >
<svg xmlns="http://www.w3.org/2000/svg">
<metadata>
This is a custom SVG font generated by IcoMoon.
<iconset grid="18"></iconset>
</metadata>
<defs>
<font id="master-white" horiz-adv-x="576" >
<font-face units-per-em="576" ascent="544" descent="-32" />
<missing-glyph horiz-adv-x="576" />
<glyph class="hidden" unicode="&#xf000;" d="M0,544L 576 -32L0 -32 z" horiz-adv-x="0" />
<glyph unicode="&#xe000;" d="M 17.301,70.306l 145.248,141.332c-18.753,32.466-22.581,70.147-22.581,110.333c0,122.003, 91.999,220.904, 214.003,220.904
	C 475.973,542.874, 574.875,443.973, 574.875,321.97s-98.902-214.003-220.904-214.003c-38.125,0-73.994,2.755-105.296,19.757l-146.371-142.425
	c-21.566-21.566-63.435-21.566-85.004,0C-4.267,6.869-4.267,48.738, 17.301,70.306z M 353.969,460.035
	c-76.25,0-138.065-61.814-138.065-138.065c0-76.252, 61.814-138.067, 138.065-138.067c 76.252,0, 138.067,61.814, 138.067,138.067
	C 492.036,398.221, 430.221,460.035, 353.969,460.035z M 271.182,349.583l 165.679,0 l0-55.227 l-165.679,0 L 271.182,349.583 z" data-tags="zoom_out" />
<glyph unicode="&#xe001;" d="M 17.301,70.306l 145.248,141.332c-18.753,32.464-22.581,70.145-22.581,110.333C 139.968,443.973, 231.967,542.875, 353.971,542.875
	C 475.973,542.875, 574.875,443.973, 574.875,321.971s-98.902-214.003-220.906-214.003c-38.124,0-73.992,2.755-105.293,19.757l-146.371-142.425
	c-21.566-21.567-63.438-21.567-85.004,0C-4.267,6.869-4.267,48.739, 17.301,70.306z M 353.969,460.036
	c-76.25,0-138.065-61.814-138.065-138.065c0-76.252, 61.814-138.067, 138.065-138.067c 76.252,0, 138.067,61.814, 138.067,138.067
	C 492.036,398.221, 430.221,460.036, 353.969,460.036z M 326.409,404.81l 55.225,0 l0-55.227 l 55.227,0 l0-55.227 L 381.634,294.356 l0-55.225 l-55.225,0 l0,55.225 
	l-55.227,0 l0,55.227 l 55.227,0 L 326.409,404.81 z" data-tags="zoom_in" />
<glyph unicode="&#xe002;" d="M 17.299,70.306l 145.248,141.332c-18.753,32.464-22.58,70.145-22.58,110.333C 139.968,443.973, 231.967,542.875, 353.969,542.875
	S 574.875,443.973, 574.875,321.971s-98.903-214.003-220.906-214.003c-38.125,0-73.994,2.755-105.293,19.757l-146.371-142.425
	c-21.567-21.567-63.438-21.567-85.005,0C-4.266,6.868-4.266,48.739, 17.299,70.306z M 353.969,460.036
	c-76.252,0-138.067-61.814-138.067-138.065c0-76.252, 61.814-138.067, 138.067-138.067c 76.25,0, 138.067,61.814, 138.067,138.067
	C 492.036,398.221, 430.22,460.036, 353.969,460.036z" data-tags="zoom" />
<glyph unicode="&#xe003;" d="M 464.853,288.635l 0.2-0.009l 4.99,0 c 35.17,0, 63.779-28.236, 63.779-62.938l0-0.368 l 0.032-0.363
	c 2.328-30.368, 3.458-62.116, 3.364-94.362c 0.095-32.303-1.036-64.051-3.364-94.42l-0.032-0.364l0-0.367 
	c0-34.706-33.401-62.94-68.571-62.94l 4.395-0.006c-56.172-2.346-120.465-3.477-181.629-3.365
	c-61.202-0.113-125.49,1.019-181.663,3.365l 4.394,0.006c-35.17,0-68.573,28.234-68.573,62.94l0,0.367 l-0.028,0.364
	c-2.329,30.352-3.461,62.1-3.365,94.365c-0.096,32.304, 1.035,64.052, 3.365,94.416l 0.028,0.363l0,0.368 
	c0,34.702, 33.404,62.938, 68.572,62.938l-4.394,0.009c 56.164,2.346, 120.456,3.476, 181.628,3.365
	C 349.192,292.111, 408.69,290.98, 464.853,288.635z M 441.053,142.939c0,6.939, 1.064,11.911, 3.207,14.919
	c 2.137,3.002, 5.656,4.508, 10.562,4.508c 4.693,0, 8.111-1.506, 10.253-4.508c 2.137-3.007, 3.206-7.981, 3.206-14.919l0-16.78 l-27.227,0 L 441.054,142.939 z
	 M 500.001,100.426l0,42.204 c0,15.733-3.789,27.791-11.354,36.178c-7.571,8.388-18.404,12.582-32.504,12.582
	c-13.791,0-25.041-4.53-33.745-13.588c-8.713-9.062-13.067-20.782-13.067-35.173l0-74.405 c0-15.957, 3.966-28.493, 11.895-37.611
	c 7.931-9.115, 18.793-13.673, 32.586-13.673c 15.343,0, 26.88,4.302, 34.604,12.899c 7.722,8.598, 11.584,21.394, 11.584,38.385l0,12.45 
	L 468.281,80.674 l0-11.52 c0-9.753-1.018-16.062-3.051-18.911c-2.034-2.853-5.608-4.277-10.717-4.277c-4.911,0-8.379,1.682-10.413,5.057
	c-2.033,3.372-3.048,9.417-3.048,18.132l0,31.272 L 500.001,100.426 z M 354.366,60.282c0-5.284-0.893-9.095-2.668-11.423
	c-1.778-2.328-4.552-3.492-8.315-3.492l-7.457,1.784l-7.295,5.825l0,103.305 l 6.354,5.050l 6.513,1.632c 4.179,0, 7.374-1.455, 9.57-4.353
	c 2.2-2.899, 3.297-7.145, 3.297-12.737L 354.366,60.282 z M 356.036,189.295c-4.78,0-9.5-1.319-14.173-3.95
	c-4.669-2.638-9.078-6.481-13.23-11.54l0,72.343 l-31.121,0 l0-224.722 l 31.121,0 l0,12.743 c 4.049-5.047, 8.436-8.784, 13.159-11.206
	c 4.719-2.421, 10.093-3.633, 16.117-3.633c 9.13,0, 16.11,3.122, 20.935,9.378c 4.825,6.256, 7.244,15.276, 7.244,27.063L 386.088,147.741 
	c0,13.54-2.573,23.853-7.712,30.933C 373.237,185.753, 365.789,189.295, 356.036,189.295z M 236.621,61.369l-9.528-8.925
	c-3.462-2.33-6.322-3.489-8.594-3.489c-2.893,0-4.985,0.88-6.275,2.638c-1.289,1.758-1.935,4.6-1.935,8.53L 210.29,187.201 l-30.822,0 
	l0-138.557 c0-9.869, 1.807-17.273, 5.42-22.211c 3.616-4.935, 8.987-7.4, 16.112-7.4c 5.778,0, 11.745,1.767, 17.886,5.286
	c 6.147,3.526, 12.053,8.667, 17.735,15.408l0-18.299 l 30.821,0 L 267.442,187.201 L 236.621,187.201 L 236.621,61.369 z M 179.891,246.15L 73.364,246.15 l0-32.616 l 35.909,0 l0-192.106 
	l 34.709,0 L 143.981,213.535 l 35.91,0 L 179.891,246.15 z M 123.329,542.875L 158.287,542.875 l 22.521-89.823l 2.179,0 L 204.462,542.875l 35.268,0 l-40.397-131.473l0-93.249 l-34.711,0 l0,89.049 
	L 123.329,542.875z M 269.875,356.989c0-4.564, 1.095-8.084, 3.292-10.573c 2.193-2.487, 5.325-3.725, 9.402-3.725
	c 4.179,0, 7.496,1.267, 9.955,3.805c 2.455,2.54, 3.683,6.034, 3.683,10.493L 296.207,447.272 c0,3.623-1.257,6.55-3.763,8.775
	c-2.507,2.226-5.797,3.345-9.875,3.345c-3.76,0-6.816-1.117-9.168-3.345c-2.351-2.224-3.526-5.151-3.526-8.775L 269.875,356.989 z
	 M 238.157,446.028c0,12.839, 4.147,23.060, 12.446,30.671c 8.301,7.612, 19.45,11.418, 33.459,11.418
	c 12.755,0, 23.204-4.015, 31.349-12.039c 8.146-8.022, 12.217-18.351, 12.217-30.985l0-85.62 c0-14.187-3.999-25.317-11.985-33.392
	c-7.986-8.076-18.982-12.114-32.986-12.114c-13.483,0-24.275,4.17-32.363,12.501c-8.093,8.333-12.138,19.54-12.138,33.624L 238.157,446.028 z
	 M 441.763,483.927l0-165.774 l-30.821,0 l0,18.3 c-5.681-6.743-11.591-11.881-17.735-15.407c-6.145-3.52-12.111-5.288-17.889-5.288
	c-7.125,0-12.498,2.464-16.11,7.404c-3.616,4.934-5.419,12.337-5.419,22.206L 353.79,483.927 l 30.822,0 l0-127.076 c0-3.933, 0.646-6.774, 1.935-8.531
	c 1.29-1.758, 3.381-2.639, 6.275-2.639c 2.271,0, 5.132,1.162, 8.593,3.49l 9.529,8.926L 410.943,483.927 L 441.763,483.927 z" data-tags="youtube" />
<glyph unicode="&#xe004;" d="M 156.516,542.875l 262.968,0 C 452.493,542.875, 479.25,516.117, 479.25,483.109l0-454.22 c0-33.008-26.758-59.766-59.767-59.766L 156.516-30.876 
	C 123.509-30.875, 96.75-4.117, 96.75,28.891L 96.75,483.109 C 96.75,516.117, 123.509,542.875, 156.516,542.875z M 144.563,471.156l0-382.5 l 83.671,0 l0-83.672 L 240.188,4.984 L 240.188,88.656 l 95.625,0 l0-83.672 
	l 11.953,0 L 347.766,88.656 L 431.438,88.656 l0,382.5 L 144.563,471.156 z M 276.047,64.75l-5.976-47.811l 35.859,0 L 311.906,64.75L 276.047,64.75 z M 401.554,64.75L 383.625,16.937l 29.883,0 
	L 425.46,64.75L 401.554,64.75 z M 156.516,52.797l-5.976-29.883l 35.858,0 L 192.375,52.797L 156.516,52.797 z M 240.188,518.969L 240.188,495.062 L 335.813,495.062 L 335.813,518.969 L 240.188,518.969 z" data-tags="windowphone" />
<glyph unicode="&#xe005;" d="M 350.813,184.4L 350.813,312.119 l 77.986,0 l0-24.264 l-49.537,0 l0-29.1 l 46.285,0 l0-22.717 l-46.285,0 l0-51.637 L 350.813,184.4 z M 473.931,184.4l-28.449,0 
	l0,91.562 l 28.449,0 L 473.931,184.4 z M 460.757,318.036c 4.66-0.089, 8.305-1.454, 10.938-4.095c 2.631-2.639, 4.014-6.016, 4.148-10.131
	c-0.043-4.031-1.417-7.385-4.124-10.059c-2.708-2.675-6.487-4.062-11.339-4.164c-4.581,0.102-8.196,1.49-10.843,4.164
	c-2.648,2.675-3.999,6.028-4.056,10.059c 0.058,4.114, 1.45,7.491, 4.173,10.131C 452.377,316.582, 456.078,317.947, 460.757,318.036z
	 M 288,435.297c 50.156,0, 95.502-20.595, 128.044-53.79l 33.324-0.001C 518.682,381.506, 574.875,325.316, 574.875,256
	c0-69.317-56.193-125.507-125.507-125.507l-33.324,0 c-32.542-33.195-77.888-53.79-128.044-53.79s-95.502,20.594-128.044,53.79
	l-33.324,0 C 57.318,130.493, 1.125,186.683, 1.125,256c0,69.316, 56.193,125.506, 125.507,125.506l 33.324,0.001
	C 192.498,414.702, 237.844,435.297, 288,435.297z M 449.368,345.648l-107.578,0 c-35.859,0-17.93-89.648-32.915-89.648
	c-20.873,0-2.944-89.649-38.803-89.649l 179.298,0 c 49.512,0, 89.649,40.137, 89.649,89.649
	C 539.017,305.511, 498.879,345.648, 449.368,345.648z M 121.305,184.4l 12.222,55.035l 4.010,18.731l 3.438,20.126l 0.381,0 l 2.698-20.241
	l 3.414-18.972l 10.884-54.679l 31.51,0 l 33.23,127.719l-29.602,0 l-10.503-52.488l-7.447-44.871l-0.381,0 l-3.080,21.327l-3.795,21.898
	l-10.313,54.314l-30.938,0 l-10.886-52.591l-8.403-44.947l-0.381,0 l-3.534,21.508l-4.106,23.362l-9.74,52.669L 58.858,312.3 l 30.556-127.899L 121.305,184.401 z
	 M 260.389,184.4l0,91.562 l-28.449,0 l0-91.562 L 260.389,184.4 z M 247.214,318.036c-4.679-0.089-8.38-1.454-11.103-4.095
	c-2.723-2.639-4.114-6.016-4.173-10.131c 0.055-4.031, 1.406-7.385, 4.056-10.059c 2.647-2.675, 6.262-4.062, 10.843-4.164
	c 4.852,0.102, 8.631,1.49, 11.339,4.164c 2.707,2.675, 4.082,6.028, 4.124,10.059c-0.134,4.114-1.517,7.491-4.148,10.131
	C 255.519,316.582, 251.874,317.947, 247.214,318.036z" data-tags="wifi" />
<glyph unicode="&#xe006;" d="M 47.025,336.009l 91.8,0.001L 276.525,450.759l0-390.15 l-137.7,137.7L 47.025,198.309 c-25.35,0-45.9,20.55-45.9,45.9l0,45.9 
	C 1.125,315.46, 21.675,336.009, 47.025,336.009z M 574.875,267.16c0-69.713-28.257-132.824-73.941-178.509l-32.456,32.456
	C 505.856,158.484, 528.975,210.121, 528.975,267.16c0,57.644-23.613,109.772-61.694,147.24l 27.744,36.991
	C 544.169,405.33, 574.875,339.831, 574.875,267.16z M 483.075,267.16c0-50.208-23.032-95.034-59.105-124.494l-32.69,32.688
	c 27.87,20.936, 45.895,54.265, 45.895,91.806c0,37.539-18.026,70.869-45.895,91.805l 32.69,32.69
	C 460.043,362.194, 483.075,317.367, 483.075,267.16z M 391.275,267.16c0-30.6-19.962-56.538-47.575-65.5l-21.274,42.55
	c 12.674,0, 22.949,10.276, 22.949,22.951c0,12.675-10.276,22.949-22.949,22.949l 21.274,42.551
	C 371.313,323.697, 391.275,297.759, 391.275,267.16z" data-tags="volume3" />
<glyph unicode="&#xe007;" d="M 92.925,336.325l 91.8,0.001L 322.425,451.075l0-390.15 L 184.725,198.625L 92.925,198.625 c-25.35,0-45.9,20.55-45.9,45.9l0,45.9 
	C 47.025,315.776, 67.575,336.325, 92.925,336.325z M 528.975,267.475c0-50.208-23.032-95.034-59.105-124.494l-32.69,32.688
	c 27.87,20.936, 45.895,54.265, 45.895,91.806c0,37.539-18.026,70.869-45.895,91.805l 32.69,32.69
	C 505.943,362.51, 528.975,317.683, 528.975,267.475z M 437.175,267.475c0-30.6-19.962-56.538-47.575-65.5l-21.274,42.55
	c 12.674,0, 22.949,10.276, 22.949,22.951c0,12.675-10.276,22.949-22.949,22.949l 21.274,42.551C 417.213,324.013, 437.175,298.075, 437.175,267.475z" data-tags="volume2" />
<glyph unicode="&#xe008;" d="M 138.825,336.325l 91.8,0.001L 368.325,451.075l0-390.15 L 230.625,198.625l-91.8,0 c-25.35,0-45.9,20.55-45.9,45.9l0,45.9 
	C 92.925,315.776, 113.475,336.325, 138.825,336.325z M 483.075,267.475c0-30.6-19.962-56.538-47.575-65.5l-21.274,42.55
	c 12.674,0, 22.949,10.276, 22.949,22.951c0,12.675-10.276,22.949-22.949,22.949l 21.274,42.551C 463.113,324.013, 483.075,298.075, 483.075,267.475z" data-tags="volume1" />
<glyph unicode="&#xe009;" d="M 196.2,336.325l 91.8,0.001L 425.7,451.075l0-390.15 L 288,198.625l-91.8,0 c-25.35,0-45.9,20.55-45.9,45.9l0,45.9 
	C 150.3,315.776, 170.85,336.325, 196.2,336.325z" data-tags="volume0" />
<glyph unicode="&#xe00a;" d="M 333.3,308.871l 30.206,0 l 90.604,75.503l0-256.714 l-90.604,90.605l-30.206,0 c-16.679,0-30.202,13.521-30.202,30.202l0,30.202 
	C 303.099,295.349, 316.621,308.871, 333.3,308.871z M 574.875,254.837c0-33.036-15.155-62.532-38.891-81.916l-21.509,21.509
	c 18.338,13.774, 30.198,35.705, 30.198,60.406c0,24.7-11.861,46.631-30.198,60.406l 21.509,21.51
	C 559.72,317.369, 574.875,287.872, 574.875,254.837z M 514.471,254.837c0-20.134-13.134-37.201-31.304-43.098l-13.998,27.997
	c 8.341,0, 15.101,6.761, 15.101,15.101c0,8.341-6.761,15.1-15.101,15.1l 13.998,27.998
	C 501.337,292.038, 514.471,274.971, 514.471,254.837z M 242.7,308.834c 16.68,0, 30.202-13.521, 30.202-30.202l0-30.202 
	c0-16.679-13.521-30.202-30.202-30.202l-30.205,0 l-90.604-90.604l0,256.714 l 90.604-75.504L 242.7,308.834 z M 1.125,254.801
	c0,33.036, 15.155,62.532, 38.891,81.916l 21.509-21.51c-18.336-13.776-30.197-35.705-30.197-60.407
	c0-24.7, 11.861-46.63, 30.197-60.406L 40.016,172.885C 16.28,192.27, 1.125,221.766, 1.125,254.801z M 61.529,254.801
	c0,20.135, 13.134,37.201, 31.303,43.099l 13.998-27.998c-8.341,0-15.1-6.761-15.1-15.101c0-8.34, 6.76-15.1, 15.1-15.1
	l-13.998-27.998C 74.663,217.6, 61.529,234.667, 61.529,254.801z" data-tags="volume_stereo" />
<glyph unicode="&#xe00b;" d="M 47.025,336.009l 91.8,0.001L 276.525,450.759l0-390.15 l-137.7,137.7L 47.025,198.309 c-25.35,0-45.9,20.55-45.9,45.9l0,45.9 
	C 1.125,315.46, 21.675,336.009, 47.025,336.009zM 313.679,174.73l 81.272,81.272l-81.272,81.272l 48.763,48.763l 81.272-81.272l 81.27,81.27l 48.763-48.764l-81.269-81.269
	L 573.75,174.73l-48.764-48.763l-81.272,81.272l-81.272-81.272L 313.679,174.73z" data-tags="volume_mute" />
<glyph unicode="&#xe00c;" d="M 83.089,413.098l 126.673-91.9L 465.588,542.875L 574.875,464.637l0-443.352 L 438.267-30.875L 209.762,164.721L 83.089,71.581L 1.125,112.564
	L 1.125,373.358 L 83.089,413.098z M 79.363,171.243l 84.76,71.718l-84.76,71.719L 79.363,171.243 z M 444.477,386.398L 288,242.96l 156.477-117.358
	L 444.477,386.398 z" data-tags="visualstadio" />
<glyph unicode="&#xe00d;" d="M 462.175,522.384C 524.418,522.384, 574.875,412.295, 574.875,276.491c0-135.803-50.457-245.894-112.7-245.894
	c-21.965,0-42.462,13.709-59.793,37.421c-39.398,42.499-80.329,106.018-134.874,106.018c-40.981,0-5.122-40.983-5.122-81.965
	c0-40.981, 5.122-102.455-56.351-102.455s-122.947,61.473-102.455,81.964c 20.491,20.491, 20.491,102.456, 20.491,102.456
	C 62.598,174.036, 1.125,215.017, 1.125,276.491S 62.598,399.437, 226.528,399.437C 390.455,399.437, 359.719,522.384, 462.175,522.384z M 349.473,276.491
	c0,60.391, 9.978,115.697, 26.533,158.499c-31.25-35.56-6.042-56.043-147.51-78.505c-132.405,0-182.055-34.283-182.055-83.935
	c0-49.651, 54.775-62.261, 104.426-62.261c0,0, 15.369-117.43-1.181-133.98c-16.551-16.551, 2.365-40.588, 52.015-40.588
	s 14.777,59.897, 14.777,92.998c0,33.101-10.442,86.298, 45.12,86.692c 108.367-41.376, 71.725-34.338, 104.714-68.283
	C 355.637,184.708, 349.473,229.029, 349.473,276.491z M 472.42,481.403c-27.572,0-50.903-60.5-58.697-143.844
	c 56.109-3.521, 99.678-29.519, 99.678-61.068c0-31.548-43.57-57.546-99.678-61.067c 7.795-83.343, 31.127-143.844, 58.697-143.844
	c 33.95,0, 61.473,91.742, 61.473,204.911S 506.37,481.403, 472.42,481.403z M 451.928,481.403c-45.268,0-81.964-91.743-81.964-204.912
	s 36.696-204.911, 81.964-204.911l 5.465,0.448c-37.382,7.030-66.939,95.884-66.939,204.463s 29.557,197.434, 66.938,204.463L 451.928,481.403
	z" data-tags="uservoice" />
<glyph unicode="&#xe00e;" d="M 17.072,162.958l 44.21,44.21l 73.682-73.682l 73.682,73.682l 44.21-44.21L 179.174,89.275l 73.682-73.682l-44.21-44.21
	l-73.682,73.682l-73.682-73.682l-44.21,44.21L 90.755,89.275L 17.072,162.958z M 308.841,540.617c 72.943,0, 104.203-41.681, 93.683-129.169
	c 9.399-5.39, 15.731-15.524, 15.731-27.136c0-14.209-9.479-26.204-22.461-30.005c-5.423-19.328-13.844-36.438-24.431-50.125l0-65.753 
	c 34.734-6.947, 62.522-10.421, 104.203-31.262c 41.68-20.842, 55.575-39.945, 83.362-67.733l0-98.992 L 269.687,40.442 L 220.854,89.275l 73.684,73.682
	l-72.061,70.831l 23.841,4.639l0,65.753 c-10.586,13.688-19.008,30.798-24.431,50.125c-12.981,3.801-22.461,15.796-22.461,30.005
	c0,11.612, 6.332,21.746, 15.731,27.136C 204.638,498.936, 235.898,540.617, 308.841,540.617z M 142.116,207.168
	c 16.32,8.16, 30.511,13.658, 43.822,17.744l-50.36-50.358l-18.358,18.358L 142.116,207.168z" data-tags="user_remove" />
<glyph unicode="&#xe00f;" d="M 37.913,151.797l 270.928,0 L 308.841,89.275 L 37.913,89.275 L 37.913,151.797 z M 288,506.087c 72.943,0, 104.203-41.681, 93.683-129.169
	c 9.399-5.39, 15.731-15.524, 15.731-27.136c0-14.209-9.479-26.204-22.461-30.005c-5.423-19.328-13.844-36.438-24.431-50.125l0-65.753 
	c 34.734-6.947, 62.522-10.421, 104.203-31.262c 41.68-20.842, 55.575-39.945, 83.362-67.733L 538.089,5.913 L 37.913,5.913 l0,62.522 l 291.769,0 L 329.681,172.637 L 121.275,172.637 
	c 41.681,20.841, 69.469,24.313, 104.203,31.262l0,65.753 c-10.586,13.688-19.008,30.798-24.431,50.125
	c-12.981,3.801-22.461,15.796-22.461,30.005c0,11.612, 6.332,21.746, 15.731,27.136C 183.797,464.406, 215.057,506.087, 288,506.087z" data-tags="user_minus" />
<glyph unicode="&#xe010;" d="M 36.983,166.989l 38.035,38.035l 63.39-63.39l 63.39,63.39l 38.035-38.035l-63.39-63.39l 63.39-63.39l-38.035-38.035
	l-63.39,63.39l-63.39-63.39l-38.035,38.035l 63.392,63.39L 36.983,166.989z M 288,402.25c 52.294,0, 74.707-29.882, 67.165-92.606
	c 6.738-3.864, 11.278-11.13, 11.278-19.455c0-10.187-6.797-18.786-16.103-21.512c-3.888-13.858-9.926-26.124-17.516-35.936l0-47.142 
	c 24.903-4.98, 44.825-7.47, 74.707-22.412c 29.883-14.941, 39.845-28.637, 59.766-48.559l0-70.971 L 263.338,43.657 l-59.941,59.941l 63.39,63.39
	l-23.611,23.61l 0.001,42.142c-7.59,9.812-13.628,22.078-17.516,35.936c-9.306,2.726-16.103,11.325-16.103,21.512
	c0,8.325, 4.538,15.59, 11.278,19.455C 213.293,372.368, 235.704,402.25, 288,402.25z M 1.125,151.234l0,70.971 
	c 19.921,19.923, 29.883,33.618, 59.765,48.559c 29.883,14.941, 49.805,17.431, 74.708,22.412l0,47.142 
	c-7.59,9.812-13.628,22.078-17.516,35.936c-9.306,2.726-16.103,11.325-16.103,21.512c0,8.324, 4.539,15.59, 11.278,19.455
	c-7.542,62.722, 14.869,92.606, 67.165,92.606c 49.050,0, 71.81-39.737, 68.222-94.756c-32.363-12.822-50.293-30.752-50.222-83.015
	c-6.738-3.864-11.278-11.131-11.278-19.456c0-10.187, 2.314-23.268, 11.621-25.993c 3.888-13.858, 9.926-26.125, 17.516-35.937l0-33.177 
	l-14.425,14.425l-59.217-59.217l-5.556-2.791l-62.008,62.008L 10.145,166.989l 15.756-15.755L 1.125,151.234 z M 425.462,176.635
	c-29.883,14.942-40.84,17.432-65.743,22.412l0,51.624 c 7.59,9.812, 13.628,22.079, 17.516,35.937
	c 9.306,2.725, 11.62,15.807, 11.62,25.994c0,8.324-4.538,15.59-11.278,19.455c 0.072,52.264-17.858,70.193-50.221,83.015
	c-3.589,55.019, 19.172,94.756, 68.222,94.756c 52.294,0, 74.707-29.883, 67.165-92.606c 6.738-3.864, 11.278-11.13, 11.278-19.455
	c0-10.187-6.798-18.786-16.104-21.512c-3.888-13.858-9.925-26.124-17.515-35.936l0-47.142 c 24.903-4.98, 44.823-7.47, 74.707-22.412
	c 29.883-14.941, 39.845-28.637, 59.766-48.559l0-70.971 L 462.284,151.236 C 447.868,166.165, 450.234,164.248, 425.462,176.635z" data-tags="user_group_remove" />
<glyph unicode="&#xe011;" d="M 305.929,148.422l0-53.79 L 72.844,94.632 l0,53.79 L 305.929,148.422 z M 288,381.507c 52.294,0, 74.707-29.882, 67.165-92.606
	c 6.738-3.864, 11.278-11.13, 11.278-19.455c0-10.187-6.797-18.786-16.103-21.512c-3.888-13.858-9.926-26.124-17.516-35.936l0-47.142 
	c 24.903-4.98, 44.825-7.47, 74.707-22.412c 29.883-14.941, 39.845-28.637, 59.766-48.559l0-70.971 L 108.702,22.915 l0,53.79 l 215.157,0 l0,89.648 l-80.685,0 
	l 0.001,45.648c-7.59,9.812-13.628,22.078-17.516,35.936c-9.306,2.726-16.103,11.325-16.103,21.512c0,8.325, 4.538,15.59, 11.278,19.455
	C 213.293,351.626, 235.704,381.507, 288,381.507z M 1.125,130.493l0,70.971 c 19.921,19.923, 29.883,33.618, 59.765,48.559
	c 29.883,14.941, 49.805,17.431, 74.708,22.412l0,47.142 c-7.59,9.812-13.628,22.078-17.516,35.936
	c-9.306,2.726-16.103,11.325-16.103,21.512c0,8.324, 4.539,15.59, 11.278,19.455c-7.542,62.722, 14.869,92.606, 67.165,92.606
	c 49.050,0, 71.81-39.737, 68.222-94.756c-32.363-12.823-50.293-30.752-50.222-83.015c-6.738-3.864-11.278-11.131-11.278-19.456
	c0-10.187, 2.314-23.268, 11.621-25.993c 3.888-13.858, 9.926-26.125, 17.516-35.937l0-51.624 c-17.46-3.492-28.064-5.76-43.144-11.953L 54.915,166.351 
	l0-35.859 L 1.125,130.493z M 425.462,155.892c-29.883,14.942-40.84,17.432-65.743,22.412l0,51.624 c 7.59,9.812, 13.628,22.079, 17.516,35.937
	c 9.306,2.725, 11.62,15.807, 11.62,25.994c0,8.324-4.538,15.59-11.278,19.455c 0.072,52.264-17.858,70.193-50.221,83.015
	c-3.589,55.019, 19.172,94.756, 68.222,94.756c 52.294,0, 74.707-29.883, 67.165-92.606c 6.738-3.864, 11.278-11.13, 11.278-19.455
	c0-10.187-6.798-18.786-16.104-21.512c-3.888-13.858-9.925-26.124-17.515-35.936l0-47.142 c 24.903-4.98, 44.823-7.47, 74.707-22.412
	c 29.883-14.941, 39.845-28.637, 59.766-48.559l0-70.971 L 462.284,130.493 C 447.868,145.423, 450.234,143.506, 425.462,155.892z" data-tags="user_group_minus" />
<glyph unicode="&#xe012;" d="M 162.493,247.036l 53.79,0 l0-89.649 l 89.648,0 l0-53.79 L 216.281,103.597 l0-89.649 l-53.79,0 l0,89.649 L 72.844,103.597 l0,53.79 l 89.649,0 L 162.493,247.036 z M 288,390.472
	c 52.294,0, 74.707-29.882, 67.165-92.606c 6.738-3.864, 11.278-11.13, 11.278-19.455c0-10.187-6.797-18.786-16.103-21.512
	c-3.888-13.858-9.926-26.124-17.516-35.936l0-47.142 c 24.903-4.98, 44.825-7.47, 74.707-22.412
	c 29.883-14.941, 39.845-28.637, 59.766-48.559l0-70.971 L 234.21,31.88 l0,53.79 l 89.649,0 l0,89.648 l-80.685,0 l 0.001,45.648l-8.965,14.109l0,29.892 
	l-20.172,0 c-2.814,3.746-4.481,8.402-4.481,13.447c0,8.325, 4.538,15.59, 11.278,19.455C 213.293,360.591, 235.704,390.472, 288,390.472z
	 M 108.702,31.88l0,53.79 l 35.859,0 l0-53.79 L 108.702,31.88 z M 1.125,139.458l0,70.971 c 19.921,19.923, 29.883,33.618, 59.765,48.559
	c 29.883,14.941, 49.805,17.431, 74.708,22.412l0,47.142 c-7.59,9.812-13.628,22.078-17.516,35.936
	c-9.306,2.726-16.103,11.325-16.103,21.512c0,8.324, 4.539,15.59, 11.278,19.455c-7.542,62.722, 14.869,92.606, 67.165,92.606
	c 49.050,0, 71.81-39.737, 68.222-94.756c-32.363-12.823-50.293-30.752-50.222-83.015c-6.738-3.864-11.278-11.131-11.278-19.456
	c0-10.187, 2.314-23.268, 11.621-25.993l 3.229-9.865l-57.432,0 l0-89.649 L 54.915,175.316 l0-35.859 L 1.125,139.458z M 425.462,164.857
	c-29.883,14.942-40.84,17.432-65.743,22.412l0,51.624 c 7.59,9.812, 13.628,22.079, 17.516,35.937
	c 9.306,2.725, 11.62,15.807, 11.62,25.994c0,8.324-4.538,15.59-11.278,19.455c 0.072,52.264-17.858,70.193-50.221,83.015
	c-3.589,55.019, 19.172,94.756, 68.222,94.756c 52.294,0, 74.707-29.883, 67.165-92.606c 6.738-3.864, 11.278-11.13, 11.278-19.455
	c0-10.187-6.798-18.786-16.104-21.512c-3.888-13.858-9.925-26.124-17.515-35.936l0-47.142 c 24.903-4.98, 44.823-7.47, 74.707-22.412
	c 29.883-14.941, 39.845-28.637, 59.766-48.559l0-70.971 L 462.284,139.458 C 447.868,154.389, 450.234,152.471, 425.462,164.857z" data-tags="user_group_add" />
<glyph unicode="&#xe013;" d="M 288,381.507c 52.294,0, 74.707-29.882, 67.165-92.606c 6.738-3.864, 11.278-11.13, 11.278-19.455
	c0-10.187-6.797-18.786-16.103-21.512c-3.888-13.856-9.926-26.124-17.516-35.936l0-47.142 c 24.903-4.98, 44.825-7.47, 74.707-22.412
	c 29.883-14.941, 39.845-28.637, 59.766-48.559l0-70.971 L 108.703,22.915 l-0.001,70.971c 19.923,19.923, 29.883,33.618, 59.766,48.559
	c 29.883,14.942, 49.805,17.432, 74.708,22.412l0,47.142 c-7.59,9.812-13.628,22.079-17.516,35.937
	c-9.306,2.725-16.103,11.324-16.103,21.511c0,8.325, 4.538,15.59, 11.278,19.455C 213.293,351.626, 235.704,381.507, 288,381.507z
	 M 150.538,155.892c-24.773-12.386-22.407-10.469-36.822-25.401L 1.125,130.493l0,70.971 c 19.921,19.923, 29.883,33.618, 59.765,48.559
	c 29.883,14.942, 49.805,17.432, 74.708,22.412l0,47.142 c-7.59,9.812-13.628,22.078-17.516,35.936
	c-9.306,2.726-16.103,11.325-16.103,21.512c0,8.325, 4.539,15.59, 11.278,19.455c-7.542,62.722, 14.869,92.606, 67.165,92.606
	c 49.050,0, 71.81-39.737, 68.222-94.756c-32.363-12.823-50.293-30.752-50.222-83.015c-6.738-3.864-11.277-11.131-11.277-19.455
	c0-10.187, 2.313-23.27, 11.62-25.994c 3.888-13.858, 9.926-26.125, 17.516-35.937l0-51.624 
	C 191.379,173.325, 180.422,170.834, 150.538,155.892z M 425.462,155.892c-29.883,14.942-40.84,17.432-65.743,22.412l0,51.624 
	c 7.59,9.812, 13.628,22.079, 17.516,35.937c 9.306,2.725, 11.62,15.807, 11.62,25.994c0,8.324-4.538,15.59-11.277,19.455
	c 0.071,52.264-17.859,70.193-50.222,83.015c-3.589,55.020, 19.172,94.756, 68.222,94.756c 52.294,0, 74.707-29.882, 67.165-92.606
	c 6.738-3.864, 11.278-11.13, 11.278-19.455c0-10.187-6.797-18.786-16.103-21.511c-3.888-13.858-9.926-26.125-17.516-35.937l0-47.142 
	c 24.903-4.98, 44.823-7.47, 74.707-22.412c 29.883-14.941, 39.845-28.637, 59.766-48.559l0-70.971 L 462.284,130.493 
	C 447.868,145.423, 450.234,143.506, 425.462,155.892z" data-tags="user_group" />
<glyph unicode="&#xe014;" d="M 288,506.087c 72.943,0, 104.203-41.681, 93.683-129.169c 9.399-5.39, 15.731-15.524, 15.731-27.136
	c0-14.209-9.479-26.204-22.461-30.005c-5.423-19.328-13.844-36.438-24.431-50.125l0-65.753 c 34.734-6.947, 62.522-10.421, 104.203-31.262
	c 41.68-20.842, 55.575-39.945, 83.362-67.733L 538.089,5.913 L 37.913,5.913 l0,98.992 c 27.787,27.787, 41.681,46.891, 83.362,67.733
	c 41.681,20.841, 69.469,24.313, 104.203,31.262l0,65.753 c-10.586,13.688-19.008,30.798-24.431,50.125
	c-12.981,3.801-22.461,15.796-22.461,30.005c0,11.612, 6.332,21.746, 15.731,27.136C 183.797,464.406, 215.057,506.087, 288,506.087z
	 M 251.53,172.637l 20.841-41.681l 31.26,0 l 20.841,41.681L 251.53,172.637 z M 267.159,110.116L 288,26.753l 20.841,83.364L 267.159,110.117 z" data-tags="user_admin" />
<glyph unicode="&#xe015;" d="M 142.116,266.42L 204.638,266.42 l0-104.203 l 104.202,0 l0-62.522 L 204.638,99.695 l0-104.202 l-62.522,0 l0,104.202 L 37.913,99.695 l0,62.522 l 104.203,0 L 142.116,266.42 z M 288,516.507
	c 72.943,0, 104.203-41.681, 93.683-129.169c 9.399-5.39, 15.731-15.524, 15.731-27.136c0-14.209-9.479-26.204-22.461-30.005
	c-5.423-19.328-13.844-36.438-24.431-50.125l0-65.753 c 34.734-6.947, 62.522-10.421, 104.203-31.262c 41.68-20.842, 55.575-39.945, 83.362-67.733
	l0-98.992 L 225.478,16.332 l0,62.522 l 104.203,0 l-0.001,104.203l-104.202,0 l0,97.014 l0,7.188 l-5.151,0 c-8.182,12.315-14.768,26.858-19.279,42.938
	c-12.981,3.801-22.461,15.796-22.461,30.005c0,11.612, 6.332,21.746, 15.731,27.136C 183.797,474.826, 215.057,516.507, 288,516.507z
	 M 37.913,16.332l0,62.522 l 83.362,0 l0-62.522 L 37.913,16.332 z" data-tags="user_add" />
<glyph unicode="&#xe016;" d="M 288,506.087c 72.943,0, 104.203-41.681, 93.683-129.169c 9.399-5.39, 15.731-15.524, 15.731-27.136
	c0-14.209-9.479-26.204-22.461-30.005c-5.423-19.328-13.844-36.438-24.431-50.125l0-65.753 c 34.734-6.947, 62.522-10.421, 104.203-31.262
	c 41.68-20.842, 55.575-39.945, 83.362-67.733L 538.089,5.913 L 37.913,5.913 l0,98.992 c 27.787,27.787, 41.681,46.891, 83.362,67.733
	c 41.681,20.841, 69.469,24.313, 104.203,31.262l0,65.753 c-10.586,13.688-19.008,30.798-24.431,50.125
	c-12.981,3.801-22.461,15.796-22.461,30.005c0,11.612, 6.332,21.746, 15.731,27.136C 183.797,464.406, 215.057,506.087, 288,506.087z" data-tags="user" />
<glyph unicode="&#xe017;" d="M 111.46,35.327l 353.078,0 l0,88.269 l 66.202,0 L 530.74-30.875 l-66.202,0 L 111.46-30.875 L 45.259-30.875 L 45.259,123.596 l 66.202,0 L 111.46,35.327 z M 243.865,79.461l 88.27,0 
	l-0.001,286.876l 110.338-132.403L 442.471,366.337 L 288,542.875L 133.53,366.337l0-132.403 l 110.335,132.403L 243.865,79.461 z" data-tags="upload_2" />
<glyph unicode="&#xe018;" d="M 464.538,476.673L 111.462,476.673 L 111.462,542.875 l 353.078,0 L 464.539,476.673 z M 332.135-30.875l-88.27,0 L 243.865,256.001 l-110.335-132.403L 133.53,256.001 L 288,432.538
	l 154.47-176.537l0-132.403 l-110.335,132.403L 332.135-30.875 z" data-tags="upload_1" />
<glyph unicode="&#xe019;" d="M 247.017,153.545L 247.017,378.947 L 144.563,256.001L 144.563,378.947 L 288,542.875l 143.438-163.928l0-122.947 l-102.455,122.947l0-225.403 L 247.017,153.544 z
	 M 21.616,215.019l 204.911,0 l0-40.983 L 62.597,174.036 l0-163.929 l 450.803,0 L 513.4,174.036 L 349.473,174.036 l0,40.983 l 204.911,0 L 554.384-30.875 L 21.616-30.875 L 21.616,215.019 z M 226.527,112.562
	l 122.947,0 l0-40.983 L 226.527,71.58 L 226.527,112.562 z" data-tags="upload_0" />
<glyph unicode="&#xe01a;" d="M 48.938,279.911l 47.808,0 L 96.747,351.625c0,105.625, 85.625,191.25, 191.25,191.25s 191.25-85.625, 191.25-191.25l-71.72,0 
	c0,66.016-53.516,119.531-119.53,119.531c-66.016,0-119.531-53.516-119.531-119.531l0-71.716 l 358.597,0.001L 527.063-30.875l-478.125,0 L 48.938,279.911 z" data-tags="unlock1" />
<glyph unicode="&#xe01b;" d="M 431.436,491.647c 79.219,0, 143.439-64.218, 143.439-143.438l0-20.492 l-61.474,0 l0,20.492 c0,45.268-36.696,81.964-81.964,81.964
	c-45.268,0-81.964-36.696-81.964-81.964l-0.001-61.468l 40.984,0 l0-266.389 L 1.125,20.353 L 1.125,286.741 l 286.873-0.002l0,61.471 
	C 287.998,427.429, 352.218,491.647, 431.436,491.647z M 165.051,81.824l 61.472,0 l-17.036,85.178c 10.099,5.038, 17.036,15.47, 17.036,27.522
	c0,16.976-13.76,30.736-30.736,30.736c-16.975,0-30.736-13.76-30.736-30.736c0-12.052, 6.937-22.484, 17.036-27.522L 165.051,81.824z
	" data-tags="unlock0" />
<glyph unicode="&#xe01c;" d="M 79.335,384.845c 52.308,55.402, 126.438,89.976, 208.645,89.976C 446.428,474.822, 574.875,346.376, 574.875,187.926
	c0-79.222-32.112-150.947-84.028-202.865l-64.547,64.547c 35.398,35.398, 57.293,84.301, 57.293,138.316
	c0,108.033-87.578,195.611-195.611,195.611c-57.934,0-109.986-25.187-145.803-65.205l 145.802-0.015l-78.234-78.234L 1.125,240.082 L 1.126,448.705
	l 78.231,78.234L 79.335,384.845z" data-tags="undo2" />
<glyph unicode="&#xe01d;" d="M 171.125,330.375l 106.251-106.249L 152.974,224.125 L 1.125,370.662L 152.974,521.625l 124.401,0 l-106.251-106.249l 191.25,0 
	c 117.361,0, 212.5-95.141, 212.5-212.501s-95.139-212.5-212.5-212.5l-63.75,0 l0,84.999 l 63.75,0 
	c 70.416,0, 127.501,57.084, 127.501,127.501s-57.083,127.501-127.501,127.501L 171.125,330.375 z M 234.874-9.625l-84.999,0 l0,84.999 l 84.999,0 
	L 234.874-9.625 z" data-tags="undo1" />
<glyph unicode="&#xe01e;" d="M 472.855,511.412c-10.072,6.394-21.105,11.942-33.096,16.643c-11.99,4.699-24.78,8.345-38.37,10.936
	C 387.799,541.581, 373.681,542.875, 359.036,542.875c-14.133,0-28.907-0.99-44.319-2.973c-15.414-1.982-30.905-5.82-46.478-11.511
	c-15.572-5.692-31.161-13.686-46.765-23.982c-15.605-10.296-30.697-23.632-45.279-40.003l-65.616-65.999L 8.894,498.268l0-264.763 l 268.985,0 
	l-102.26,102.547l 65.328,65.711c 9.784,9.784, 19.777,18.067, 29.978,24.846c 10.2,6.779, 20.305,12.264, 30.314,16.452
	c 10.008,4.19, 19.905,7.194, 29.69,9.018c 9.784,1.823, 19.153,2.734, 28.107,2.734c 8.825,0, 17.188-0.752, 25.086-2.253
	c 7.897-1.503, 15.188-3.454, 21.871-5.852c 6.683-2.397, 12.68-5.195, 17.986-8.393c 5.309-3.197, 9.753-6.587, 13.334-10.169
	c 14.39-14.197, 25.085-29.291, 32.088-45.279c 7.003-15.99, 10.504-32.584, 10.504-49.788c0-22.767-6.155-46.189-18.467-70.267
	c-12.31-24.078-30.649-48.332-55.015-72.763c-6.011-5.949-12.854-12.727-20.529-20.337c-7.675-7.611-15.812-15.717-24.414-24.318
	c-8.601-8.603-17.443-17.348-26.524-26.237c-9.082-8.889-17.843-17.523-26.286-25.9c-19.953-19.763-40.609-40.259-61.97-61.49
	L 308.672-30.875c 21.617,21.423, 42.401,42.015, 62.354,61.778c 8.634,8.377, 17.443,17.059, 26.43,26.044
	c 8.984,8.987, 17.779,17.731, 26.38,26.237c 8.603,8.505, 16.739,16.563, 24.414,24.174c 7.675,7.61, 14.517,14.388, 20.529,20.337
	c 18.611,18.417, 34.215,36.516, 46.812,54.296c 12.6,17.779, 22.688,35.158, 30.267,52.138s 13.014,33.623, 16.308,49.93
	c 3.294,16.309, 4.941,32.232, 4.941,47.774c0,15.987-1.695,31.431-5.085,46.333c-3.39,14.902-8.091,29.051-14.102,42.448
	s-13.158,25.932-21.44,37.604c-8.281,11.672-17.219,22.43-26.812,32.281C 491.865,498.044, 482.928,505.015, 472.855,511.412z" data-tags="undo0" />
<glyph unicode="&#xe01f;" d="M 144.563-30.875l0,47.811 c 52.812,0, 95.625,23.907, 95.625,83.672l0,310.781 c0,46.211-31.484,59.766-77.695,59.766
	s-77.695-13.554-77.695-59.766L 25.031,411.39 L 25.031,542.875 L 550.969,542.875 l0-131.486 l-59.767,0 c0,46.211-31.485,59.766-77.695,59.766
	c-46.211,0-77.696-13.554-77.696-59.766l0-310.781 c 0.001-59.766, 42.814-83.672, 95.626-83.672L 431.438-30.875 L 144.563-30.875 z" data-tags="type" />
<glyph unicode="&#xe020;" d="M 574.875,433.941c-21.108-9.362-43.796-15.689-67.605-18.534c 24.298,14.568, 42.966,37.637, 51.755,65.124
	c-22.745-13.49-47.936-23.286-74.751-28.564c-21.471,22.878-52.062,37.171-85.92,37.171c-65.006,0-117.713-52.702-117.713-117.709
	c0-9.225, 1.042-18.21, 3.049-26.826C 185.861,349.512, 99.125,396.375, 41.069,467.593c-10.134-17.385-15.938-37.605-15.938-59.178
	c0-40.839, 20.781-76.869, 52.367-97.978c-19.294,0.613-37.447,5.909-53.317,14.724c-0.010-0.493-0.010-0.983-0.010-1.481
	c0-57.032, 40.575-104.607, 94.424-115.423c-9.876-2.689-20.276-4.129-31.011-4.129c-7.586,0-14.959,0.738-22.148,2.112
	c 14.981-46.763, 58.452-80.796, 109.961-81.745c-40.286-31.573-91.042-50.392-146.193-50.392c-9.501,0-18.87,0.559-28.079,1.646
	c 52.092-33.397, 113.967-52.887, 180.441-52.887c 216.514,0, 334.916,179.365, 334.916,334.917c0,5.103-0.118,10.179-0.344,15.229
	C 539.139,389.606, 559.095,410.337, 574.875,433.941z" data-tags="twitter1" />
<glyph unicode="&#xe021;" d="M 240.188-30.875c-92.421,0-167.344,74.923-167.344,167.344L 72.844,495.062 c0,26.407, 21.406,47.813, 47.813,47.813l 47.813,0 
	c 26.407,0, 47.813-21.405, 47.813-47.813l0-107.579 l 239.061,0 c 26.407,0, 47.814-21.406, 47.814-47.813l0-23.907 c0-26.405-21.406-47.813-47.814-47.813
	L 216.28,267.951 l0-107.575 c0-26.407, 21.406-47.813, 47.813-47.813L 431.438,112.564 c 39.609,0, 71.72-32.111, 71.72-71.72S 471.047-30.875, 431.438-30.875L 240.188-30.875 z" data-tags="twitter0" />
<glyph unicode="&#xe022;" d="M 1.125,382.887l 22.067,0 l0,33.101 l 33.101-11.034l0-22.067 L 574.875,382.887 l0-55.168 L 1.125,327.719 L 1.125,382.887 z M 23.192,316.685l 529.616,0 
	c0-29.423,0-58.845-22.067-74.478c-22.068-15.631-66.202-17.469-110.337-19.308L 155.595,222.898 c-44.135,1.839-88.269,3.678-110.337,19.308
	C 23.192,257.839, 23.192,287.262, 23.192,316.685z M 23.192,96.012c0,36.777, 5.516,73.557, 20.229,91.947
	c 14.71,18.389, 60.685,23.905, 90.109,23.905l 308.942,0 c 29.423,0, 75.396-5.516, 90.109-23.905
	c 14.712-18.39, 20.229-55.169, 20.229-91.947L 530.741,96.012 c0,29.423-5.518,58.846-20.229,73.557
	c-14.713,14.712-60.686,14.712-90.109,14.712L 155.595,184.28 c-29.423,0-75.396,0-90.109-14.712c-14.713-14.71-20.229-44.134-20.229-73.557
	L 23.192,96.012 z" data-tags="tube" />
<glyph unicode="&#xe023;" d="M 144.561,178.764c 30.47,0, 55.169-24.699, 55.169-55.169c0-30.468-24.699-55.168-55.169-55.168
	c-30.468,0-55.168,24.699-55.168,55.168C 89.394,154.065, 114.093,178.764, 144.561,178.764z M 453.505,178.764
	c 30.468,0, 55.168-24.7, 55.168-55.169c0-30.468-24.699-55.168-55.168-55.168c-30.47,0-55.169,24.699-55.169,55.168
	C 398.336,154.064, 423.035,178.764, 453.505,178.764z M 243.865,156.696L 243.865,443.572 L 574.875,443.572 L 574.875,156.696 l-39.517,0 
	c-13.095,32.349-44.81,55.169-81.854,55.169s-68.758-22.819-81.854-55.169L 243.865,156.696 z M 1.125,156.696L 1.125,289.101 l 88.269,88.27l 132.405-0.001
	l0-211.006 c-15.058,27.136-44.003,45.503-77.236,45.503c-37.044,0-68.758-22.819-81.853-55.169L 1.125,156.697 z" data-tags="truck" />
<glyph unicode="&#xe024;" d="M 288,542.875c 85.312,0, 154.471-19.759, 154.471-44.135l-0.015-4.823c 23.462,27.354, 48.424,40.405, 66.215,4.823
	c 38.956-58.435-42.436-288.797-137.951-266.172c-17.697-23.124-35.779-38.434-50.508-48.34
	c 20.275-7.543, 33.987-21.987, 33.987-38.566c0-15.676-12.259-29.444-30.735-37.273l 31.358-36.46
	c 39.231-9.576, 65.579-27.324, 65.579-47.637C 420.404-6.176, 361.125-30.875, 288-30.875s-132.403,24.699-132.403,55.169
	c0,20.313, 26.346,38.061, 65.579,47.637l 31.358,36.46c-18.476,7.831-30.735,21.597-30.735,37.273
	c0,16.579, 13.713,31.023, 33.987,38.566c-14.729,9.905-32.811,25.216-50.508,48.34C 109.764,209.944, 28.37,440.306, 67.327,498.74
	c 17.791,35.583, 42.755,22.531, 66.215-4.823l-0.015,4.823C 133.528,523.116, 202.688,542.875, 288,542.875z M 486.605,468.399
	c0,28.872-22.56,3.058-48.003-44.564c-6.69-61.531-21.428-108.678-39.185-144.675C 454.719,300.36, 486.605,412.129, 486.605,468.399z
	 M 89.395,468.399c0-56.271, 31.886-168.040, 87.188-189.238c-17.758,35.997-32.495,83.144-39.185,144.675
	C 111.954,471.457, 89.395,497.271, 89.395,468.399z" data-tags="trophy" />
<glyph unicode="&#xe025;" d="M 84,479.126l 408.002,0 c 14.083,0, 19.124-57.375, 19.124-57.375L 64.875,421.751 C 64.875,421.751, 69.918,479.126, 84,479.126z M 249.751,542.875l 76.5,0 
	c 7.041,0, 25.499-18.458, 25.499-25.499s-18.458-25.502-25.499-25.502l-76.5,0 c-7.041,0-25.502,18.46-25.502,25.502S 242.71,542.875, 249.751,542.875z
	 M 122.25,402.626l 331.499,0 c 14.084,0, 25.502-11.416, 25.502-25.502l-25.502-382.5c0-14.083-11.415-25.499-25.499-25.499L 147.752-30.875 
	c-14.084,0-25.502,11.416-25.502,25.499l-25.499,382.5C 96.751,391.208, 108.168,402.626, 122.25,402.626z M 160.5,351.625l 6.377-331.499
	l 44.624,0 L 205.127,351.625L 160.5,351.625 z M 262.502,351.625l0-331.499 l 50.998,0 L 313.5,351.625 L 262.502,351.625 z M 370.875,351.625l-6.374-331.499l 44.624,0 L 415.502,351.625L 370.875,351.625 z" data-tags="trash_0" />
<glyph unicode="&#xe026;" d="M 503.155,208.187c0-132.030-107.031-239.063-239.063-239.063s-239.063,107.031-239.063,239.063c0,123.963, 94.35,225.889, 215.156,237.882L 240.186,471.156 
	l-71.719,0 L 168.468,542.875 l 191.249,0 l0-71.719 l-71.719,0 l0-25.086 c 48.081-4.774, 91.972-23.794, 127.391-52.777l 17.248,17.248l-33.809,33.809L 449.543,495.062
	l 101.425-101.425l-50.714-50.712l-33.807,33.807l-17.248-17.248C 482.923,318.273, 503.155,265.592, 503.155,208.187z M 86.376,232.093
	l 58.186,0 l0-47.811 L 86.376,184.281 c 10.646-79.901, 73.911-143.165, 153.81-153.812L 240.186,88.656 l 47.813,0 l0-58.186 c 79.901,10.645, 143.165,73.909, 153.81,153.81
	l-58.186,0 l0,47.811 l 58.186,0 c-10.646,79.901-73.911,143.165-153.81,153.81l0-58.184 l-47.813,0 l0,58.186 
	C 160.287,375.259, 97.022,311.993, 86.376,232.093z M 264.094,256c 26.406,0, 47.811-21.406, 47.811-47.813c0-26.406-21.405-47.813-47.811-47.813
	l-95.626-71.719l 47.813,119.531C 216.28,234.593, 237.688,256, 264.094,256z" data-tags="time_timer" />
<glyph unicode="&#xe027;" d="M 299.034,206.348c 6.093,0, 11.033-4.94, 11.033-11.034c0-6.093-4.94-11.033-11.033-11.033c-6.095,0-11.034,4.94-11.034,11.033
	C 288,201.409, 292.94,206.348, 299.034,206.348z M 299.034,165.891c 6.093,0, 11.033-4.94, 11.033-11.034c0-6.093-4.94-11.033-11.033-11.033
	c-6.095,0-11.034,4.94-11.034,11.033C 288,160.952, 292.94,165.891, 299.034,165.891z M 89.394,542.875l 397.213,0 l0-66.202 l-46.846,0 
	c-7.568-52.246-33.411-182.019-106.863-220.673c 73.451-38.654, 99.295-168.428, 106.862-220.673l 46.847,0 L 486.606-30.875 L 89.394-30.875 l0,66.202 l 46.846,0 
	c 7.568,52.246, 33.411,182.019, 106.862,220.673c-73.449,38.654-99.294,168.426-106.862,220.673L 89.394,476.673 L 89.394,542.875 z M 188.697,476.673
	c0,0, 10.918-65.512, 32.757-121.286c 35.578,16.856, 105.642,44.087, 138.97,15.951c 17.919,51.578, 26.88,105.335, 26.88,105.335L 188.697,476.673 z
	 M 387.303,35.327c0,0-33.101,198.606-99.303,198.606c-57.316,0-89.821-148.873-97.515-188.835
	c 34.325,24.517, 88.314,63.779, 103.031,78.498c0,0, 41.598-62.398, 80.83-88.269L 387.303,35.328 z" data-tags="time_sandglass" />
<glyph unicode="&#xe028;" d="M 288,490.716c 144.033,0, 260.794-116.761, 260.794-260.794S 432.033-30.875, 288-30.875S 27.206,85.888, 27.206,229.921
	S 143.967,490.716, 288,490.716z M 288,425.517c-108.025,0-195.596-87.572-195.596-195.596c0-108.025, 87.571-195.596, 195.596-195.596
	s 195.596,87.571, 195.596,195.596C 483.596,337.945, 396.025,425.517, 288,425.517z M 281.481,373.358
	c 14.402,0, 26.079-11.676, 26.079-26.079l0-97.8 l 97.799,0 c 14.402,0, 26.079-11.675, 26.079-26.079l0-13.039 
	c0-14.405-11.676-26.081-26.079-26.081L 288,184.281 c-13.040,2.175-26.079,4.347-33.687,11.953c-7.606,7.606-9.779,20.647-11.952,33.687
	L 242.361,347.279 c0,14.402, 11.675,26.079, 26.079,26.079L 281.481,373.358 z M 470.556,542.875C 528.169,542.875, 574.875,496.169, 574.875,438.556
	c0-24.853-8.692-47.678-23.203-65.599c-34.014,62.569-89.651,111.682-156.88,137.306C 413.805,530.347, 440.719,542.875, 470.556,542.875z M 105.444,542.874
	c 29.837,0, 56.751-12.527, 75.764-32.609C 113.979,484.639, 58.343,435.526, 24.328,372.957C 9.817,390.879, 1.125,413.703, 1.125,438.556
	C 1.125,496.169, 47.831,542.874, 105.444,542.874z" data-tags="time_clock" />
<glyph unicode="&#xe029;" d="M 209.762,334.238l 156.477,0 l0-156.477 L 209.762,177.761 L 209.762,334.238 z M 209.762,542.874l 156.477,0 l0-156.477 L 209.762,386.396 L 209.762,542.874 z M 1.125,542.874l 156.477,0 
	l0-156.477 L 1.125,386.396 L 1.125,542.874 z M 1.125,334.238l 156.477,0 l0-156.477 L 1.125,177.761 L 1.125,334.238 z M 418.398,334.238L 574.875,334.238 l0-156.477 L 418.398,177.761 L 418.398,334.238 z M 418.398,542.875L 574.875,542.875 l0-156.477 
	L 418.398,386.398 L 418.398,542.875 z M 1.125,125.602l 156.477,0 L 157.602-30.875 L 1.125-30.875 L 1.125,125.602 z M 209.762,125.602l 156.477,0 L 366.239-30.875 L 209.762-30.875 L 209.762,125.602 z M 418.398,125.602L 574.875,125.602 L 574.875-30.875 L 418.398-30.875 
	L 418.398,125.602 z" data-tags="tiles_nine" />
<glyph unicode="&#xe02a;" d="M 86.265,542.875l 133.795,0 l 340.566-340.566c 18.999-18.999, 18.999-49.804,0-68.804l-150.131-150.131
	c-18.999-18.999-49.805-18.999-68.804,0L 1.125,323.94L 1.125,457.733 c0,28.38,0,56.762, 14.19,70.951C 29.505,542.875, 57.886,542.875, 86.265,542.875z
	 M 122.755,469.896c-26.87,0-48.653-21.783-48.653-48.653s 21.783-48.651, 48.653-48.651s 48.651,21.781, 48.651,48.651
	S 149.626,469.896, 122.755,469.896z" data-tags="ticket" />
<glyph unicode="&#xe02b;" d="M 135.057,28.803l 64.865,64.865l-64.865,64.866l 38.919,38.919l 64.865-64.865l 64.866,64.865l 38.919-38.919L 277.762,93.668
	l 64.865-64.865l-38.919-38.919l-64.866,64.865l-64.865-64.865L 135.057,28.803z M 162.394,316.891c 18.346,6.112, 28.496,1.514, 32.738,9.101
	c 4.24,7.585, 10.235,15.254, 17.988,23.006c 7.752,7.751, 17.126,15.669, 28.124,23.751l 36.969,24.249
	c 9.541,5.763, 18.286,12.737, 26.236,20.919s 14.989,16.613, 21.118,25.292c 6.129,8.679, 11.213,17.16, 15.255,25.442l 8.546,21.167
	c 3.048,11.197, 7.322,19.379, 12.821,24.547c 5.498,5.168, 10.932,7.752, 16.298,7.752c 5.168,0, 9.673-2.071, 13.516-6.212
	c 3.842-4.14, 5.962-9.954, 6.361-17.441l 0.298-5.565l0-5.565 c0-13.647-1.44-26.898-4.323-39.751c-2.882-12.854-7.237-23.090-13.068-30.708
	l-10.683-15.703l-10.981-17.589l-12.423-20.173l 59.925-6.163l 24.845-2.682l 24.497-2.783l 22.061-2.632l 17.442-2.236
	c 4.704-0.596, 8.463-3.528, 11.279-8.795c 2.816-5.267, 4.223-11.213, 4.223-17.839l-0.944-9.342l-3.429-9.043L 504,295.731l-4.521-9.192
	l-4.522-9.491l-2.782-7.155l-1.839-8.647l-1.888-12.571l-1.889-13.068l-1.838-9.44l-5.118-13.218l-6.807-10.584l-7.005-8.993
	l-5.615-8.547l-4.323-11.777l-2.932-9.937l-3.279-9.144l-4.969-9.192l-3.378-4.671l-10.783-15.056l-11.329-13.018
	c-3.942-3.81-8.182-6.858-12.719-9.143c-4.539-2.286-9.623-3.429-15.255-3.429l-8.348,0 l-31.057,0 l-38.061,0.298l-3.84,0.105
	l 58.675,58.675l-64.865,64.865l-64.866-64.865l-64.865,64.865l-14.675-14.675L 162.394,316.891z M 156.277,102.841l 0.237,8.291
	l 8.367-8.368L 156.277,102.841z M 139.080,99.457L 64.547,99.457 L 64.547,316.891 l 74.535,0.35l0-128.736 l-29.97-29.97l 29.97-29.97L 139.082,99.457 z" data-tags="thumbup_remove" />
<glyph unicode="&#xe02c;" d="M 101.241,73.883L 339.75,73.883 l0-55.041 L 101.241,18.842 L 101.241,73.883 z M 162.394,287.933c 18.346,6.112, 28.496,1.514, 32.738,9.101
	c 4.24,7.585, 10.235,15.254, 17.988,23.006c 7.752,7.751, 17.126,15.669, 28.124,23.751l 36.969,24.249
	c 9.541,5.763, 18.286,12.737, 26.236,20.919c 7.95,8.182, 14.989,16.613, 21.118,25.292c 6.129,8.679, 11.213,17.16, 15.255,25.442
	l 8.546,21.167c 3.048,11.197, 7.322,19.379, 12.821,24.547c 5.498,5.168, 10.932,7.752, 16.298,7.752c 5.168,0, 9.673-2.071, 13.516-6.212
	c 3.842-4.14, 5.962-9.954, 6.361-17.441l 0.298-5.565l0-5.565 c0-13.647-1.44-26.898-4.323-39.751c-2.882-12.853-7.237-23.090-13.068-30.708
	l-10.683-15.703l-10.981-17.589l-12.423-20.173l 59.925-6.163l 24.845-2.682l 24.497-2.783l 22.061-2.632l 17.442-2.236
	c 4.704-0.596, 8.463-3.528, 11.279-8.795c 2.816-5.267, 4.223-11.213, 4.223-17.839l-0.944-9.342l-3.429-9.043L 504,266.772l-4.522-9.192
	l-4.521-9.491l-2.782-7.155l-1.839-8.647l-1.888-12.571l-1.889-13.068l-1.838-9.44l-5.118-13.218l-6.807-10.584l-7.005-8.993
	l-5.615-8.547l-4.323-11.777l-2.932-9.937l-3.279-9.144l-4.969-9.192l-3.378-4.671l-10.783-15.056l-11.329-13.018
	c-3.942-3.81-8.182-6.858-12.719-9.143c-4.539-2.286-9.623-3.429-15.255-3.429l-8.348,0 l-24.761,0 l0,21.732 l-201.296,0 L 162.394,287.933z
	 M 64.547,70.499L 64.547,287.933 l 74.535,0.35l0-196.053 L 82.893,92.23 l0-21.732 L 64.547,70.499 z" data-tags="thumbup_minus" />
<glyph unicode="&#xe02d;" d="M 192.975,211.485l 55.041,0 l0-91.735 L 339.75,119.75 l0-55.041 l-91.735,0 l0-91.734 l-55.041,0 l0,91.734 L 101.241,64.709 l0,55.041 l 91.734,0 L 192.975,211.485 z M 162.394,333.799
	c 18.346,6.112, 28.496,1.514, 32.738,9.101c 4.24,7.585, 10.235,15.254, 17.988,23.006c 7.752,7.751, 17.126,15.669, 28.124,23.752l 36.969,24.248
	c 9.541,5.763, 18.286,12.737, 26.236,20.919s 14.989,16.613, 21.118,25.292c 6.129,8.679, 11.213,17.16, 15.255,25.442l 8.546,21.167
	c 3.048,11.197, 7.322,19.379, 12.821,24.547c 5.498,5.168, 10.932,7.752, 16.298,7.752c 5.168,0, 9.673-2.071, 13.516-6.212
	c 3.842-4.14, 5.962-9.954, 6.361-17.441l 0.298-5.565l0-5.565 c0-13.647-1.44-26.898-4.323-39.751c-2.882-12.853-7.237-23.090-13.068-30.708
	l-10.683-15.703l-10.981-17.589l-12.423-20.173l 59.925-6.163l 24.845-2.682l 24.497-2.783l 22.061-2.632l 17.442-2.236
	c 4.704-0.596, 8.463-3.528, 11.279-8.795c 2.816-5.267, 4.223-11.213, 4.223-17.839l-0.944-9.342l-3.428-9.043L 504,312.639l-4.521-9.194
	l-4.522-9.491l-2.782-7.155l-1.839-8.647l-1.888-12.571l-1.889-13.068l-1.838-9.44l-5.118-13.218l-6.807-10.584l-7.005-8.993
	l-5.615-8.547l-4.323-11.777l-2.932-9.937l-3.279-9.144l-4.969-9.192l-3.378-4.671l-10.782-15.056l-11.33-13.018
	c-3.942-3.81-8.182-6.858-12.719-9.143c-4.539-2.286-9.623-3.429-15.255-3.429l-8.348,0 l-24.761,0 l0,21.732 l-91.734,0 l0,91.734 l-91.735,0 l0-91.734 
	l-17.827,0 L 162.394,333.799z M 64.547,116.366L 64.547,333.799 l 74.535,0.35l0-196.053 L 82.893,138.097 l0-21.732 L 64.547,116.365 z" data-tags="thumbup_add" />
<glyph unicode="&#xe02e;" d="M 276.525,83.875c 31.688,0, 57.376-25.687, 57.376-57.376c0-31.687-25.687-57.375-57.376-57.375c-31.687,0-57.375,25.687-57.375,57.375
	C 219.151,58.188, 244.838,83.875, 276.525,83.875z M 288.001,542.875C 389.401,542.875, 471.6,477.288, 471.6,382.225c0-34.425-22.95-91.8-68.849-114.751
	c-45.9-22.95-68.85-53.775-68.85-91.8l0-45.9 l-114.75,0 l0,34.425 c0,78.048, 68.85,126.226, 91.8,149.176c 45.9,45.9, 45.9,52.269, 45.9,68.85
	c0,38.024-30.826,68.85-68.85,68.85c-38.025,0-68.85-30.826-68.85-68.85l0-34.425 L 104.4,347.8 L 104.4,370.75 C 104.4,465.812, 186.601,542.875, 288.001,542.875z" data-tags="symbol_question" />
<glyph unicode="&#xe02f;" d="M 288,112.562c-39.61,0-71.719-32.109-71.719-71.719c0-39.61, 32.109-71.719, 71.719-71.719c 39.607,0, 71.719,32.109, 71.719,71.719
	C 359.719,80.454, 327.607,112.562, 288,112.562z M 216.281,542.875l 23.904-382.498l 95.626,0 L 359.719,542.875L 216.281,542.875 z" data-tags="symbol_alert" />
<glyph unicode="&#xe030;" d="M 574.875,219.767l-107.019-24.571c 8.035,23.697, 11.45,49.14, 9.493,74.967L 574.875,219.767z M 465.23,27.527l-93.032,58.29
	c 23.264,11.478, 43.414,27.37, 59.7,46.326L 465.23,27.527z M 251.767-30.875l-24.571,107.019c 23.697-8.035, 49.14-11.45, 74.967-9.493
	L 251.767-30.875z M 59.527,78.77l 58.29,93.032c 11.478-23.265, 27.37-43.415, 46.326-59.7L 59.527,78.77z M 1.125,292.233l 107.019,24.57
	c-8.035-23.697-11.45-49.139-9.493-74.965L 1.125,292.233z M 110.77,484.473l 93.032-58.291c-23.265-11.476-43.415-27.369-59.7-46.325
	L 110.77,484.473z M 324.233,542.875l 24.57-107.019c-23.697,8.035-49.139,11.45-74.965,9.493L 324.233,542.875z M 516.473,433.23l-58.291-93.032
	c-11.477,23.265-27.369,43.414-46.325,59.7L 516.473,433.23z M 288,407.872c 83.877,0, 151.872-67.996, 151.872-151.872
	S 371.877,104.128, 288,104.128S 136.128,172.123, 136.128,256S 204.123,407.872, 288,407.872z" data-tags="sun" />
<glyph unicode="&#xe031;" d="M 513.402,399.436c 33.95,0, 61.473-27.522, 61.473-61.473l0-245.892 c0-33.95-27.523-61.473-61.473-61.473l-20.492,0 L 492.91,399.436 
	L 513.402,399.436 z M 103.581,30.598L 103.581,399.436 l 102.456,0 l0,20.492 c0,33.95, 27.522,61.473, 61.473,61.473l 61.473,0 
	c 33.95,0, 61.473-27.523, 61.473-61.473l0-20.492 l 81.964,0 l0-368.839 L 103.581,30.597 z M 62.598,30.598C 28.648,30.598, 1.125,58.122, 1.125,92.072L 1.125,337.964 
	c0,33.951, 27.523,61.473, 61.473,61.473l 20.492,0 l0-368.839 L 62.598,30.598 z M 298.244,440.419c-24.784,0-45.457-17.599-50.202-40.983l 100.405,0 
	C 343.702,422.82, 323.029,440.419, 298.244,440.419z" data-tags="suitcase" />
<glyph unicode="&#xe032;" d="M 1.125,128.499l0,98.109 l 127.5,114.39L 192.375,277.249l 63.748,212.499l 127.5-148.75l 84.999,84.999l-63.75,63.75l 169.999,0 
		l0-169.999 l-63.748,63.748L 383.623,255.999l-106.248,127.498l-63.75-212.498l-84.999,84.999L 1.125,128.499zM 574.875,22.252l-63.75,0 L 511.125,298.502 L 574.875,234.752L 574.875,22.252 z M 447.375,22.252L 383.625,22.252 L 383.625,171.003 l 63.75,63.748L 447.375,22.252 z M 319.876,22.252
		l-63.75,0 L 256.125,149.752 l 31.875,127.5l 31.875-42.499L 319.875,22.252 z M 192.376,22.252l-63.75,0 L 128.626,171.003 l 63.75-63.75L 192.376,22.252 z M 64.876,22.252
		L 1.126,22.252 l0,21.249 l 63.75,63.75L 64.876,22.252 z" data-tags="stock_up" />
<glyph unicode="&#xe033;" d="M 574.875,22.249l-63.75,0 l0,63.75 L 574.875,85.999 L 574.875,22.249 z M 447.375,22.249L 383.625,22.249 l0,85.001 l 63.75-21.251L 447.375,22.249 z M 319.876,22.249l-63.75,0 
		l0,42.5 l 63.75,63.75L 319.876,22.249 z M 192.376,22.249l-63.75,0 l0,191.25 l 42.5,42.5l 21.249-106.251L 192.375,22.249 z M 64.876,22.249L 1.126,22.249 
		L 1.126,319.748 l 63.75-63.75L 64.876,22.249 zM 1.125,489.751l0-98.109 l 127.5-114.39L 192.375,341.002l 63.75-212.499l 127.498,148.749l 84.999-84.999l-63.75-63.75l 169.999,0 l0,169.999 
		l-63.748-63.75L 383.623,362.252l-106.248-127.5L 213.624,447.251l-84.999-84.999L 1.125,489.751z" data-tags="stock_down" />
<glyph unicode="&#xe034;" d="M 574.875,498.741l0-132.403 l-44.134,44.134l-192.464-181.271l-100.555,107.197l-53.235-166.751l-47.32,47.643L 23.192,101.529L 23.192,432.54 
	l 375.145,0 l0-66.202 l 88.269,88.269L 442.47,498.741L 574.875,498.741 z M 1.125,13.259l 136.043,144.477l 59.15-59.553l 53.235,166.75l 88.724-95.286
	l 104.194,108.421L 442.471,13.259 L 1.125,13.259 z" data-tags="stock" />
<glyph unicode="&#xe035;" d="M 244.649,228.091l 46.812-46.812l-78.021-78.020l 78.021-78.020l-46.812-46.812l-78.020,78.021L 88.611-21.571l-46.812,46.811
	l 78.020,78.020l-78.020,78.021l 46.812,46.811l 78.020-78.020L 244.649,228.091z M 1.125,334.966l 215.944,0 L 288,533.572l 70.931-198.606L 574.875,334.966 
	L 395.036,206.124l 80.536-202.168L 288,114.294l-32.632-21.754l-10.719,10.72l 78.020,78.020l-78.020,78.021l-59.815-56.186L 1.125,334.966z" data-tags="star_remove" />
<glyph unicode="&#xe036;" d="M 310.067,145.663l0-66.202 l-286.875,0 l0,66.202 L 310.067,145.663 z M 1.125,322.202l 215.944,0 L 288,520.808l 70.931-198.606L 574.875,322.202 L 395.036,193.36
	l 80.536-202.168l-143.436,84.375l0,92.165 L 177.754,167.731 l 7.080,22.619L 1.125,322.202z M 122.495-8.808l 20.721,66.202l 78.581,0 L 122.495-8.808z" data-tags="star_minus" />
<glyph unicode="&#xe037;" d="M 1.125,322.202l 215.944,0 L 288,520.808l 70.931-198.606L 574.875,322.202 L 395.036,193.36l 80.536-202.168L 288,101.529l-165.506-110.337l 62.34,199.158
	L 1.125,322.202z" data-tags="star_fill" />
<glyph unicode="&#xe038;" d="M 133.528,267.034l 66.202,0 l0-110.337 l 110.335,0 l0-66.202 l-110.335,0 l0-110.335 l-66.202,0 l0,110.335 L 23.192,90.496 L 23.192,156.696 l 110.337,0 L 133.528,267.034 z M 1.125,333.236
	l 215.944,0 L 288,531.842l 70.931-198.606L 574.875,333.236 L 395.036,204.394l 80.536-202.168l-143.439,84.375l0,92.165 l-110.335,0 l0,110.335 L 111.46,289.101 l0-35.055 L 1.125,333.236z
	" data-tags="star_add" />
<glyph unicode="&#xe039;" d="M 564.983,18.586l-178.061,0.001L 386.922,157.079 L 248.431,157.079 L 248.431,295.57 L 109.938,295.57 L 109.938,434.060 L 11.017,434.060 L 11.017,493.414 l 158.275,0 l0-138.491 l 138.492,0 l0-138.491 
	L 446.276,216.433 l0-138.491 l 118.707,0 L 564.983,18.586 z" data-tags="stairs1" />
<glyph unicode="&#xe03a;" d="M 11.017,77.941L 129.724,77.941 L 129.724,216.431 l 138.491,0 L 268.215,354.923 l 138.492,0 L 406.707,493.414 l 158.275,0 l0-59.354 l-98.921,0 l0-138.491 L 327.569,295.57 L 327.569,157.079 L 189.078,157.079 
	l0-138.491 L 11.017,18.586L 11.017,77.941 z" data-tags="stairs0" />
<glyph unicode="&#xe03b;" d="M 559.908,16.521l-179.608,0.001L 380.3,156.218 L 240.604,156.218 L 240.604,295.914 L 100.907,295.914 L 100.907,435.609 L 1.125,435.609 L 1.125,495.479 l 159.651,0 l0-139.696 l 139.697,0 l0-139.696 l 139.696,0 
	l0-139.696 l 119.739,0 L 559.908,16.521 z M 360.343,495.479l 154.663,0 L 574.875,435.609l-104.771,0 L 574.875,330.836l-49.893-49.89l-104.77,104.774l0-104.771 
	l-59.869,59.869L 360.343,495.479 z" data-tags="stairs_up1" />
<glyph unicode="&#xe03c;" d="M 16.092,76.393l 119.739,0 L 135.831,216.087 l 139.696,0 L 275.527,355.783 l 139.697,0 L 415.224,495.479 L 574.875,495.479 l0-59.869 l-99.782,0 l0-139.696 L 335.396,295.914 l0-139.696 L 195.702,156.218 l0-139.696 
	L 16.092,16.521L 16.092,76.393 z M 215.657,340.816l-59.869-59.869l0,104.771 l-104.77-104.774L 1.125,330.836l 104.772,104.774L 1.125,435.61 L 60.994,495.479l 154.663,0 
	L 215.657,340.816 z" data-tags="stairs_up0" />
<glyph unicode="&#xe03d;" d="M 555.091,18.586l-178.061,0.001L 377.030,157.079 L 238.539,157.079 L 238.539,295.57 L 100.046,295.57 L 100.046,434.060 L 1.125,434.060 L 1.125,493.414 l 158.275,0 l0-138.491 l 138.492,0 l0-138.491 l 138.491,0 
	l0-138.491 l 118.707,0 L 555.090,18.586 z M 574.875,275.785L 421.545,275.785 l-59.354,59.354l 103.869-0.001l-103.869,103.87l 49.462,49.462l 103.868-103.87L 515.521,488.469 
	L 574.875,429.115L 574.875,275.785 z" data-tags="stairs_down1" />
<glyph unicode="&#xe03e;" d="M 20.909,77.941l 118.707,0 L 139.616,216.431 l 138.491,0 L 278.107,354.923 l 138.492,0 L 416.599,493.414 L 574.875,493.414 l0-59.354 l-98.921,0 l0-138.491 L 337.461,295.57 L 337.461,157.079 L 198.97,157.079 l0-138.491 
	l-178.061-0.001L 20.909,77.941 z M 1.125,429.115l 59.354,59.354l0-103.869 l 103.868,103.87l 49.462-49.462l-103.869-103.87l 103.869,0.001l-59.354-59.354
	L 1.125,275.785 L 1.125,429.115 z" data-tags="stairs_down0" />
<glyph unicode="&#xe03f;" d="M 468.099,242.734l-4.369,35.593l 106.775,13.11L 574.875,255.846L 468.099,242.734z M 444.619,349.709l-26.649,23.994l 71.983,79.945
	l 26.649-23.994L 444.619,349.709z M 453.85,143.475l 13.432,33.248l 99.745-40.3l-13.434-33.248L 453.85,143.475z M 1.125,264.542
	l 39.989,17.997l 17.175-148.854l-39.235,5.351L 1.125,264.542z M 359.718,425.91c 29.883-53.788, 59.766-107.578, 68.731-164.356
	c 8.965-56.778-2.988-116.542-14.942-176.308l-172.231,23.486l-16.030-50.381l-89.648,0 l-15.196,66.863l-37.239,5.078L 64.386,293.011
	L 359.718,425.91z M 158.010,85.246l 44.823,0 l 9.597,27.419l-63.439,8.651L 158.010,85.246z" data-tags="speakerphone" />
<glyph unicode="&#xe040;" d="M 305.695,384.033l 27.572,27.57l 24.587-24.587l-52.159-52.159l0-48.743 l 42.969,24.807l 19.091,71.251l 33.588-9l-10.091-37.662
	l 44.857,25.899l 16.363,61.064l 83.97-22.5l-22.5-83.97l-59.375,15.909l-46.684-26.953l 37.662-10.091l-9-33.588l-71.251,19.091L 323.082,256
	l 42.211-24.371l 71.252,19.091l 8.999-33.588l-37.662-10.091l 46.684-26.953l 59.375,15.909l 22.5-83.97l-83.97-22.5l-16.362,61.064
	l-44.858,25.899l 10.091-37.662l-33.588-9l-19.091,71.251l-42.969,24.807l0-48.743 l 52.159-52.159l-24.587-24.587l-27.572,27.57l0-53.907 
	l 43.467-43.467L 287.691-30.875l-61.47,61.47l 44.702,44.702l0,51.797 l-27.572-27.57l-24.587,24.588l 52.159,52.159l0,49.616 
	l-42.212-24.372l-19.091-71.251l-33.588,9l 10.092,37.663l-46.685-26.954l-15.909-59.375l-83.97,22.5l 22.5,83.97l 61.063-16.362
	l 44.858,25.899l-37.662,10.091l 9,33.588l 71.251-19.091L 253.537,256l-42.969,24.808l-71.251-19.091l-9,33.588l 37.662,10.091l-44.858,25.899
	l-61.064-16.362l-22.499,83.97l 83.97,22.5l 15.909-59.375l 46.685-26.954l-10.092,37.663l 33.588,9l 19.091-71.252l 42.212-24.371l0,49.616 
	l-52.159,52.159l 24.587,24.588l 27.572-27.57L 270.919,436.703 L 226.221,481.405L 287.691,542.875l 61.471-61.47l-43.467-43.467L 305.695,384.033 z M 263.72,482.023
	l 24.588-24.588l 24.588,24.588l-24.588,24.588L 263.72,482.023z M 263.72,29.977l 24.588-24.588l 24.588,24.588l-24.588,24.587
	L 263.72,29.977z M 80.273,347.718l 33.588,9l-9,33.587l-33.588-9L 80.273,347.718z M 471.756,121.695l 33.588,9l-9,33.587l-33.588-9
	L 471.756,121.695z M 471.756,390.305l-9-33.587l 33.588-9l 9,33.587L 471.756,390.305z M 80.273,164.282l-9-33.588l 33.588-9l 9,33.588
	L 80.273,164.282z" data-tags="snow" />
<glyph unicode="&#xe041;" d="M 128.66,437.687c 41.855,0, 75.783-33.93, 75.783-75.785c0-41.855-33.93-75.783-75.783-75.783
	c-41.856,0-75.785,33.93-75.785,75.783C 52.875,403.759, 86.804,437.687, 128.66,437.687z M 149.063,117.062L 426.938,117.062 c 29.512,0, 53.438-23.924, 53.438-53.439
	c0-29.512-23.924-53.438-53.438-53.438L 149.063,10.186 c-29.512,0-53.438,23.924-53.438,53.438C 95.625,93.137, 119.549,117.062, 149.063,117.062z M 416.25,501.812
	c 59.024,0, 106.875-57.42, 106.875-128.25s-47.85-128.25-106.875-128.25s-106.875,57.42-106.875,128.25S 357.224,501.812, 416.25,501.812z" data-tags="smiley_what" />
<glyph unicode="&#xe042;" d="M 136.433,523.187c 41.855,0, 75.783-33.93, 75.783-75.785c0-41.855-33.93-75.783-75.783-75.783
	c-41.856,0-75.785,33.93-75.785,75.783C 60.648,489.259, 94.578,523.187, 136.433,523.187z M 439.569,523.187
	c 41.855,0, 75.783-33.931, 75.783-75.785s-33.93-75.783-75.783-75.783s-75.785,33.93-75.785,75.783S 397.714,523.187, 439.569,523.187z
	 M 52.875,266.686l 470.25,0 c 23.61,0, 42.75-19.139, 42.75-42.749s-19.141-42.75-42.75-42.75L 523.125,127.75 c0-76.733-83.579-138.938-160.311-138.938
	C 286.079-11.188, 202.5,51.017, 202.5,127.75l0,53.438 L 52.875,181.187 C 29.265,181.187, 10.125,200.327, 10.125,223.937S 29.265,266.686, 52.875,266.686z M 266.625,181.187L 266.625,149.125 
	c0-53.123, 43.064-96.188, 96.188-96.188c 53.123,0, 96.188,43.065, 96.188,96.188l0,32.063 l-64.126,0 L 394.874,127.75 c0-17.707-14.355-32.063-32.063-32.063
	c-17.706,0-32.063,14.355-32.063,32.063l0,53.438 L 266.625,181.187 z" data-tags="smiley_tounge" />
<glyph unicode="&#xe043;" d="M 176.186,384.791c0-59.027-33.495-106.875-74.813-106.875c-41.317,0-74.811,47.85-74.811,106.875l 85.5,105.793
	C 148.317,483.176, 176.186,438.634, 176.186,384.791z M 304.436,384.791c0,53.843, 27.87,98.383, 64.125,105.793l 85.5-105.793
	c0-59.027-33.495-106.875-74.813-106.875C 337.931,277.916, 304.436,325.766, 304.436,384.791z M 101.373,128.291l 235.125,0 c 29.512,0, 53.438-23.924, 53.438-53.438
	c0-29.513-23.924-53.439-53.438-53.439l-235.125,0 c-29.512,0-53.438,23.924-53.438,53.438C 47.936,104.367, 71.861,128.291, 101.373,128.291z
	 M 486.123,86.623c-74.811,20.293-7.123,141.778-10.686,212.668C 560.936,193.5, 582.31,85.541, 486.123,86.623z" data-tags="smiley_sky" />
<glyph unicode="&#xe044;" d="M 111.17,37.804c0-24.24-21.513-39.9-52.207-39.9c-26.691,0-43.478,20.084-48.837,39.9
	c 12.756,103.712, 143.203,199.501, 277.875,199.501s 265.119-95.789, 277.875-199.501c-5.36-19.817-22.147-39.899-48.838-39.899
	c-30.692,0-52.206,15.66-52.206,39.899l-2.63,4.179c-14.474,65.626-86.959,104.833-174.2,104.833s-159.725-39.206-174.2-104.833
	L 111.17,37.804z M 223.875,408.304c0-59.024-33.495-106.874-74.813-106.874C 107.746,301.43, 74.25,349.279, 74.25,408.304l 85.5,105.793
	C 196.005,506.689, 223.875,462.146, 223.875,408.304z M 352.125,408.304c0,53.843, 27.87,98.386, 64.125,105.793l 85.5-105.793
	c0-59.024-33.495-106.874-74.811-106.874C 385.62,301.43, 352.125,349.279, 352.125,408.304z" data-tags="smiley_sad" />
<glyph unicode="&#xe045;" d="M 288,79.171c 70.54,0, 136.776,51.991, 165.157,111.733L 122.843,190.904 C 151.224,131.162, 217.46,79.171, 288,79.171z
	 M 517.035,275.917c 26.692,0, 43.479-20.087, 48.838-45.179C 553.119,99.417, 422.67-21.875, 288-21.875C 153.331-21.875, 22.881,99.417, 10.125,230.739
	c 5.36,25.091, 22.147,45.178, 50.523,45.157l0,0.020 l 454.705,0 L 517.035,275.917 z M 138.375,533.875c 70.83,0, 128.25-57.42, 128.25-128.25c0-17.707-14.356-32.063-32.063-32.063
	c-17.707,0-32.063,14.355-32.063,32.063c0,35.415-28.71,64.125-64.125,64.125c-35.416,0-64.125-28.71-64.125-64.125c0-17.707-14.356-32.063-32.063-32.063
	C 24.48,373.562, 10.125,387.917, 10.125,405.625C 10.125,476.456, 67.545,533.875, 138.375,533.875z M 437.625,533.875c 70.83,0, 128.25-57.42, 128.25-128.25c0-17.707-14.355-32.063-32.063-32.063
	c-17.707,0-32.063,14.355-32.063,32.063c0,35.415-28.709,64.125-64.125,64.125c-35.415,0-64.125-28.71-64.125-64.125c0-17.707-14.355-32.063-32.063-32.063
	c-17.707,0-32.063,14.355-32.063,32.063C 309.375,476.456, 366.794,533.875, 437.625,533.875z" data-tags="smiley_happy" />
<glyph unicode="&#xe046;" d="M 149.063,103.701l 277.876,0 c 29.512,0, 53.438-23.924, 53.438-53.439c0-29.512-23.924-53.438-53.438-53.438L 149.063-3.175 
	c-29.512,0-53.438,23.924-53.438,53.438C 95.626,79.777, 119.55,103.701, 149.063,103.701z M 128.658,360.199
	c 41.855,0, 75.783-33.93, 75.783-75.783s-33.93-75.783-75.783-75.783S 52.875,242.561, 52.875,284.415S 86.805,360.199, 128.658,360.199z
	 M 447.339,362.143c 41.855,0, 75.785-33.93, 75.785-75.783c0-41.856-33.931-75.785-75.785-75.785s-75.783,33.93-75.783,75.785
	C 371.556,328.213, 405.486,362.143, 447.339,362.143z M 374.547,369.839c-15.335-8.854-34.945-3.599-43.799,11.736
	c-8.854,15.336-3.599,34.945, 11.736,43.799l 148.090,85.501c 15.335,8.854, 34.944,3.599, 43.799-11.736
	c 8.854-15.336, 3.599-34.945-11.736-43.799L 374.547,369.839z M 53.361,455.34c-15.335,8.854-20.589,28.463-11.736,43.799
	c 8.855,15.335, 28.464,20.589, 43.799,11.736l 148.090-85.5c 15.335-8.855, 20.589-28.464, 11.736-43.799
	c-8.855-15.336-28.464-20.59-43.799-11.737L 53.361,455.34z" data-tags="smiley_angry" />
<glyph unicode="&#xe047;" d="M 339.202,194.898l0,37.512 l 144.641,206.044l0,1.772 L 352.269,440.226 L 352.269,497.866 l 220.341,0 l0-40.257 L 431.123,254.317l0-1.779 L 574.875,252.538 l0-57.64 L 339.202,194.898 z
	 M 153.902,94.431l0,24.272 l 93.591,133.323l0,1.146 l-85.136,0 l0,37.297 l 142.573,0 l0-26.048 L 213.381,132.88l0-1.152 l 93.017,0 l0-37.297 L 153.902,94.431 z
	 M 1.125,14.134l0,17.652 l 68.066,96.962l0,0.835 L 7.274,129.583 L 7.274,156.707 l 103.689,0 l0-18.945 L 44.381,42.096l0-0.837 l 67.648,0 l0-27.125 L 1.125,14.134 z" data-tags="sleep" />
<glyph unicode="&#xe048;" d="M 1.125,160.376L 77.626,160.375l 224.716,267.75l 105.189,0 L 326.25,504.625L 450.563,504.625 L 574.875,389.876L 450.563,275.125L 326.25,275.125 L 407.531,351.625L 326.25,351.625 L 96.75,83.875L 1.125,83.875 L 1.125,160.376 z M 1.125,351.625
	l0,76.5 l 95.625,0 l 90.844-105.984l-43.061-50.238L 77.625,351.625L 1.125,351.625 z M 326.25,160.375l 81.28,0 L 326.249,236.875l 124.313-0.001l 124.313-114.75L 450.563,7.375l-124.313,0 l 81.281,76.5
	l-105.19,0 l-87.521,104.281l 43.807,51.11L 326.25,160.375z" data-tags="shuffle" />
<glyph unicode="&#xe049;" d="M 111.834,189.331c 16.489,0, 32.131-3.625, 46.174-10.12l 87.516,87.518l-32.87,32.868l-31.142-31.142l-31.141,31.142
	l 12.935,12.938c-26.31,10.284-46.049,31.185-77.338,62.476C 21.471,439.508-15.405,507.202, 10.393,533
	c 25.798,25.798, 82.483-0.066, 146.981-64.564c 31.29-31.29, 63.203-62.037, 73.486-88.35l 12.938,12.938l 31.141-31.141l-31.141-31.142
	l 32.868-32.87l 87.518,87.516c-6.497,14.042-10.12,29.685-10.12,46.174c0,60.807, 49.295,110.103, 110.104,110.103
	c 14.2,0, 27.773-2.689, 40.236-7.583l-84.277-84.277l 62.283-62.284l 84.278,84.277c 4.894-12.463, 7.583-26.036, 7.583-40.236
	c0-60.81-49.295-110.104-110.103-110.104c-11.864,0-23.29,1.876-33.998,5.349l-91.218-91.218L 467.115,107.421l 7.784,7.786l 75.738-75.736
	l-46.713-46.713l-75.736,75.738l 7.786,7.784L 307.808,204.445l-91.218-91.218c 3.473-10.708, 5.349-22.133, 5.349-33.998
	c0-60.807-49.295-110.103-110.104-110.103c-14.2,0-27.773,2.689-40.236,7.583l 84.277,84.278l-62.283,62.283L 9.314,38.992
	c-4.894,12.463-7.583,26.036-7.583,40.236C 1.731,140.037, 51.026,189.331, 111.834,189.331z" data-tags="setting_2" />
<glyph unicode="&#xe04a;" d="M 229.605,255.999A58.395,58.395 180 1 1 346.395,255.99900000000002A58.395,58.395 180 1 1 229.605,255.99900000000002zM 308.149,444.204l 93.998,80.619c 17.646-7.502, 34.401-16.691, 50.065-27.365l-16.884-122.625l 123.475-9.46
		c 7.063-17.469, 12.484-35.777, 16.073-54.733l-98.67-74.788l 80.62-93.998c-7.502-17.646-16.691-34.401-27.365-50.065l-122.625,16.884
		l-9.46-123.475c-17.469-7.063-35.778-12.483-54.733-16.071l-74.788,98.669l-93.998-80.62
		c-17.646,7.502-34.401,16.691-50.065,27.365l 16.884,122.625L 17.198,146.627C 10.135,164.096, 4.714,182.404, 1.125,201.359l 98.67,74.788
		l-80.619,93.998c 7.502,17.646, 16.691,34.401, 27.365,50.065l 122.625-16.884l 9.46,123.475c 17.469,7.063, 35.778,12.484, 54.733,16.073
		L 308.149,444.204z M 288,372.79c-64.502,0-116.791-52.289-116.791-116.791S 223.498,139.208, 288,139.208
		s 116.791,52.289, 116.791,116.791S 352.502,372.79, 288,372.79z" data-tags="setting_1" />
<glyph unicode="&#xe04b;" d="M 243.041,9.394c 4.111-10.495, 8.954-20.623, 14.466-30.322c 9.831-1.016, 19.809-1.537, 29.909-1.537
	c 21.825,0, 43.082,2.432, 63.514,7.040c-28.189,28.35-45.609,67.418-45.609,110.555c0,86.596, 70.2,156.796, 156.796,156.796
	c 41.55,0, 79.326-16.162, 107.382-42.541c 3.527,17.991, 5.375,36.585, 5.375,55.609c0,12.858-0.844,25.516-2.48,37.927
	c-16.964,9.021-35.163,16.026-54.279,20.696l-2.752,67.337c-16.963,3.033-34.419,4.643-52.24,4.7l-14.859-65.731
	c-26.461-1.537-51.748-7.449-75.148-17.022l-41.813,52.867c-15.832-7.667-30.889-16.683-45.024-26.897l 26.623-61.932
	c-19.923-16.37-37.106-35.95-50.76-57.951l-64.921,18.199c-8.23-15.316-15.172-31.428-20.677-48.191l 57.949-34.46
	c-4.939-18.975-7.567-38.883-7.567-59.404l 0.629-17.333l-63.218-23.437c 2.384-17.578, 6.289-34.674, 11.575-51.148L 243.041,9.394z
	 M 197.192,271.798l 64.92-18.198c 8.23,15.316, 15.172,31.428, 20.677,48.191l-57.949,34.46c 4.939,18.975, 7.567,38.883, 7.567,59.404
	l-0.63,17.333l 63.218,23.437c-2.383,17.578-6.288,34.674-11.575,51.148l-67.13-6.182c-7.45,19.022-17.306,36.837-29.194,53.072
	c-25.166-9.372-48.666-22.17-69.932-37.826c 22.991-27.28, 36.844-62.514, 36.844-100.982c0-85.288-68.097-154.673-152.886-156.747
	c 2.435-27.067, 8.622-53.054, 18.037-77.435c 23.528,2.177, 46.052,7.82, 67.056,16.414l 41.813-52.867
	c 15.832,7.667, 30.89,16.681, 45.025,26.897l-26.624,61.932C 166.353,230.218, 183.537,249.799, 197.192,271.798z" data-tags="setting_0" />
<glyph unicode="&#xe04c;" d="M 296.438,483.812c 18.64,0, 16.876-15.11, 16.876-33.749l 1.153-36.471l 195.644-55.113l-8.165-32.748l-21.277,5.304L 574.875,146.312
	c0-32.619-53.768-59.063-109.686-59.063S 355.5,113.693, 355.5,146.312l 85.853,194.525l-125.523,31.296l 9.892-294.378
	c 65.175-4.771, 114.153-25.152, 114.153-49.569L 153,28.188 c0,24.417, 48.978,44.797, 114.153,49.569l 11.564,303.631l-141.897,35.379L 220.5,222.25
	c0-32.619-53.768-59.063-109.686-59.063S 1.125,189.631, 1.125,222.25l 96.381,204.318l-21.277,5.306l 8.165,32.748l 195.141-46.54L 279.563,450.062
	C 279.563,468.703, 277.797,483.812, 296.438,483.812z M 535.467,146.312L 473.625,299.377L 473.625,146.312 L 535.467,146.312 z M 394.908,146.312L 456.75,146.312 L 456.75,299.377 L 394.908,146.312z
	 M 181.092,222.249L 119.25,375.314l0-153.064 L 181.092,222.25 z M 40.533,222.249L 102.375,222.249 L 102.375,375.314 L 40.533,222.249z" data-tags="scale" />
<glyph unicode="&#xe04d;" d="M 1.125,542.875l 469.432,0 L 574.875,438.556L 574.875-30.875 L 1.125-30.875 L 1.125,542.875 z M 522.714,412.475l-78.238,78.24l-26.079,0 l0-208.637 L 131.523,282.079 l-0.001,208.637l-78.238-0.001
	l 0.001-469.43l 469.429,0 L 522.713,412.475 z M 314.079,490.716l0-156.477 l 52.159,0 L 366.238,490.716 L 314.079,490.716 z" data-tags="save" />
<glyph unicode="&#xe04e;" d="M 1.125,542.875c 316.873,0, 573.75-256.877, 573.75-573.75L 455.344-30.875 c0,250.858-198.009,454.219-442.264,454.219L 1.125,423.182L 1.125,542.875 z M 1.125,351.625
	c 211.249,0, 382.5-171.251, 382.5-382.5L 264.094-30.875 c0,145.233-117.735,262.968-262.969,262.968L 1.125,351.625 z M 84.797,136.469
	c 46.209,0, 83.671-37.461, 83.671-83.671c0-46.211-37.461-83.672-83.671-83.672C 38.586-30.875, 1.125,6.586, 1.125,52.797
	C 1.125,99.007, 38.586,136.469, 84.797,136.469z" data-tags="rss" />
<glyph unicode="&#xe04f;" d="M 498.375,179.5c0-116.188-94.188-210.375-210.375-210.375S 77.625,63.313, 77.625,179.5c0,103.904, 75.328,190.216, 174.352,207.303L 173.25,461.594L 173.25,480.719 L 230.625,542.875
	l 114.75,0 l 57.375-62.156L 402.75,461.594 l-78.728-74.79C 423.047,369.716, 498.375,283.405, 498.375,179.5z M 288,332.5C 203.5,332.5, 135,264, 135,179.5s 68.501-153, 153-153
	s 153,68.501, 153,153S 372.5,332.5, 288,332.5z M 297.561,418.562l 57.375,47.813L 316.688,466.375 L 297.561,418.562z M 326.25,485.5l 4.781,38.249L 297.561,499.844L 326.25,485.5z
	 M 278.438,418.562l-19.125,47.813l-38.25,0 L 278.438,418.562z M 249.75,485.5l 28.688,14.344L 244.969,523.75L 249.75,485.5z" data-tags="ring" />
<glyph unicode="&#xe050;" d="M 144.563-30.875L 144.563,542.875 l 286.875,0 l0-573.75 L 288,112.562L 144.563-30.875z" data-tags="ribbon" />
<glyph unicode="&#xe051;" d="M 476.262,273.929c 54.462,0, 98.613-44.151, 98.613-98.613s-44.151-98.613-98.613-98.613s-98.613,44.151-98.613,98.613
	S 421.798,273.929, 476.262,273.929z M 99.738,291.859c 54.462,0, 98.613-44.152, 98.613-98.614s-44.151-98.613-98.613-98.613
	S 1.125,138.783, 1.125,193.245S 45.276,291.859, 99.738,291.859z M 99.738,247.035c-29.708,0-53.79-24.082-53.79-53.79
	c0-29.707, 24.082-53.79, 53.79-53.79c 29.707,0, 53.79,24.083, 53.79,53.79C 153.528,222.953, 129.445,247.035, 99.738,247.035z
	 M 216.281,435.297l0-71.719 c 26.153,27.701, 66.464,47.654, 107.568,47.654c 65.017,0, 119.931-43.264, 137.535-102.557
	c-15.717-2.379-30.22-8.468-42.581-17.346c-10.539,42.643-49.053,74.259-94.952,74.259c-28.968,0-53.802-17.86-71.711-37.87l 71.72,0 
	L 288,291.859l-107.578,0 l0,107.578 L 216.281,435.297z" data-tags="return" />
<glyph unicode="&#xe052;" d="M 1.127,194.527L 1.126,419.928l 394.452,0 l-87.087,81.964l 133.192,0 L 574.875,378.947L 441.683,256L 308.491,256 l 87.087,81.964L 83.090,337.964 l0-71.718 
	L 1.127,194.527z M 574.875,317.473l0-225.402 L 180.422,92.072 l 87.087-81.964L 134.317,10.108 L 1.125,133.053L 134.317,256l 133.192,0 l-87.087-81.965l 312.488,0.001
	l0,71.718 L 574.875,317.473z" data-tags="repeat1" />
<glyph unicode="&#xe053;" d="M 1.125,133.053L 1.126,460.911L 574.875,460.911 l0-327.858 l-230.526-0.001l 87.086-81.964L 298.244,51.088 L 165.052,174.035l 133.192,122.947l 133.191,0 
	l-87.086-81.964l 148.561,0.001L 492.91,378.947 L 83.090,378.947 l0-163.927 l 76.841,0 l-35.861-40.983l 30.736-40.983L 1.125,133.054 z" data-tags="repeat0" />
<glyph unicode="&#xe054;" d="M 288,498.741c 69.558,0, 132.281-29.257, 176.54-76.136L 464.539,542.875 l 66.201-66.202l 0.001-176.538L 354.202,300.135 L 288,366.338l 123.362,0 
	c-30.305,33.859-74.345,55.168-123.362,55.168c-83.923,0-153.259-62.465-164.047-143.439L 46.249,278.067 
	C 57.399,401.788, 161.377,498.741, 288,498.741z M 288,90.495c 83.923,0, 153.259,62.465, 164.046,143.439l 77.706,0 
	C 518.601,110.212, 414.623,13.259, 288,13.259c-69.558,0-132.281,29.257-176.54,76.136L 111.46-30.875 L 45.259,35.327L 45.259,211.865 l 176.54,0 
	L 288,145.663L 164.637,145.663 C 194.942,111.803, 238.983,90.495, 288,90.495z" data-tags="reload" />
<glyph unicode="&#xe055;" d="M 496.641,526.938l 78.231-78.234L 574.875,240.082L 366.253,240.082 l-78.234,78.234l 145.802,0.015
	c-35.818,40.020-87.869,65.205-145.803,65.205c-108.033,0-195.611-87.578-195.611-195.611c0-54.016, 21.896-102.918, 57.293-138.316
	l-64.547-64.547C 33.237,36.979, 1.125,108.704, 1.125,187.926C 1.125,346.376, 129.572,474.822, 288.020,474.822c 82.207,0, 156.338-34.575, 208.645-89.976
	L 496.641,526.938z" data-tags="redo2" />
<glyph unicode="&#xe056;" d="M 213.625,330.375c-70.418,0-127.501-57.084-127.501-127.501s 57.084-127.501, 127.501-127.501l 63.75,0 l0-84.999 l-63.75,0 
	C 96.264-9.625, 1.125,85.514, 1.125,202.874s 95.139,212.501, 212.5,212.501l 191.25,0 l-106.251,106.249l 124.401,0 L 574.875,370.662L 423.026,224.125L 298.625,224.125 
	l 106.251,106.249L 213.625,330.375 z M 341.126,75.375l 84.999,0 l0-84.999 l-84.999,0 L 341.126,75.375 z" data-tags="redo1" />
<glyph unicode="&#xe057;" d="M 76.334,490.5C 66.741,480.649, 57.803,469.891, 49.521,458.219c-8.282-11.672-15.429-24.207-21.44-37.604
	c-6.011-13.398-10.712-27.548-14.102-42.448c-3.39-14.902-5.085-30.346-5.085-46.333c0-15.541, 1.647-31.465, 4.941-47.774
	c 3.294-16.308, 8.729-32.951, 16.308-49.93s 17.667-34.359, 30.267-52.138c 12.598-17.779, 28.202-35.879, 46.812-54.296
	c 6.011-5.949, 12.854-12.727, 20.529-20.337c 7.675-7.611, 15.812-15.669, 24.414-24.174c 8.601-8.506, 17.395-17.251, 26.38-26.237
	c 8.987-8.984, 17.795-17.667, 26.43-26.044c 19.953-19.763, 40.737-40.355, 62.354-61.778l 61.97,62.642
	c-21.36,21.231-42.018,41.727-61.97,61.49c-8.442,8.377-17.203,17.011-26.286,25.9c-9.081,8.89-17.924,17.636-26.524,26.237
	c-8.603,8.601-16.739,16.707-24.414,24.318c-7.675,7.61-14.518,14.388-20.529,20.337c-24.366,24.431-42.705,48.684-55.015,72.763
	c-12.312,24.078-18.467,47.501-18.467,70.267c0,17.203, 3.501,33.798, 10.504,49.788c 7.003,15.987, 17.7,31.081, 32.088,45.279
	c 3.581,3.581, 8.025,6.97, 13.334,10.169c 5.308,3.197, 11.304,5.995, 17.986,8.393c 6.683,2.4, 13.974,4.349, 21.871,5.852
	c 7.899,1.502, 16.261,2.253, 25.086,2.253c 8.954,0, 18.323-0.911, 28.107-2.734c 9.784-1.824, 19.681-4.829, 29.69-9.018
	c 10.010-4.187, 20.114-9.673, 30.314-16.452c 10.2-6.779, 20.193-15.062, 29.978-24.846l 65.328-65.711l-102.26-102.547l 268.985,0 L 567.107,498.268 
	l-101.685-99.862l-65.616,65.999c-14.581,16.371-29.673,29.707-45.279,40.003c-15.604,10.296-31.193,18.289-46.765,23.982
	c-15.573,5.691-31.065,9.529-46.478,11.511C 245.872,541.885, 231.099,542.875, 216.964,542.875c-14.645,0-28.763-1.294-42.353-3.883
	c-13.59-2.591-26.38-6.237-38.37-10.936c-11.991-4.701-23.024-10.249-33.096-16.643C 93.072,505.015, 84.135,498.044, 76.334,490.5z" data-tags="redo0" />
<glyph unicode="&#xe058;" d="M 288,415.133c 28.807,0, 52.159-23.353, 52.159-52.159c0-28.807-23.353-52.159-52.159-52.159
	c-28.807,0-52.159,23.353-52.159,52.159C 235.84,391.78, 259.193,415.133, 288,415.133z M 330.411,274.597l 48.865-302.816L 196.721-28.219 
	l 48.867,302.816L 330.411,274.597 z M 574.875,362.973c0-66.901-22.902-128.453-61.291-177.246l-41.015,32.226
	c 31.409,39.922, 50.147,90.282, 50.147,145.019S 503.978,468.072, 472.569,507.991l 41.015,32.226C 551.973,491.427, 574.875,429.874, 574.875,362.973z
	 M 62.416,185.728C 24.027,234.52, 1.125,296.072, 1.125,362.973S 24.027,491.427, 62.416,540.219l 41.015-32.228
	c-31.411-39.919-50.147-90.28-50.147-145.018s 18.736-105.099, 50.147-145.018L 62.416,185.728z M 431.553,475.765
	c 24.431-31.050, 39.003-70.219, 39.003-112.791c0-42.573-14.572-81.744-39.003-112.791l-41.015,32.226
	c 17.45,22.178, 27.86,50.157, 27.86,80.566s-10.41,58.387-27.86,80.566L 431.553,475.765z M 144.447,250.181
	c-24.431,31.050-39.003,70.219-39.003,112.791c0,42.573, 14.572,81.744, 39.003,112.791l 41.015-32.226
	c-17.45-22.178-27.86-50.157-27.86-80.566s 10.41-58.387, 27.86-80.566L 144.447,250.181z" data-tags="radio" />
<glyph unicode="&#xe059;" d="M 50.695,502.166c 54.837-23.946, 95.486-54.417, 121.945-91.414c 26.461-36.996, 42.805-49.987, 49.030-86.864
	c 6.227-36.876, 17.96-85.848, 17.96-135.893l0-178.158 L 24.114,9.837 L 24.114,201.403 l 95.785,0 C 119.181,308.921, 77.035,379.802, 1.125,410.213L 50.695,502.166
	z M 385.94,502.166c 55.794-23.946, 96.683-54.417, 122.663-91.414c 25.981-36.996, 42.085-49.987, 48.312-86.864
	C 563.142,287.011, 574.875,238.039, 574.875,187.994l0-178.158 L 359.36,9.835 L 359.36,201.403 l 95.784,0 c-1.437,107.519-43.581,178.399-118.772,208.81
	L 385.94,502.166z" data-tags="quote_right" />
<glyph unicode="&#xe05a;" d="M 574.875,410.213c-75.912-30.411-118.056-101.292-118.775-208.81l 95.785,0 l0-191.567 L 336.37,9.835 L 336.37,187.994 
	c0,50.047, 11.733,99.017, 17.96,135.893c 6.225,36.876, 22.57,49.868, 49.030,86.864c 26.459,36.998, 67.107,67.469, 121.945,91.414
	L 574.875,410.213z M 239.628,410.213c-75.192-30.411-117.335-101.292-118.772-208.81l 95.784,0 l0-191.567 L 1.125,9.835 L 1.125,187.994 
	c0,50.047, 11.733,99.017, 17.96,135.893c 6.227,36.876, 22.33,49.868, 48.312,86.864c 25.981,36.998, 66.869,67.469, 122.663,91.414
	L 239.628,410.213z" data-tags="quote_left" />
<glyph unicode="&#xe05b;" d="M 232.831,542.874c 132.403-44.134-22.067-66.201, 55.169-132.402l 154.47-0.001L 442.47,256 c 66.202-77.236, 88.269,77.236, 132.403-55.168
	c-44.135-132.403-66.202,22.067-132.403-55.169l0-176.537 L 288.001-30.874 c-77.236,66.202, 77.235,88.269-55.169,132.403
	c-132.403-44.135, 22.068-66.202-55.168-132.403L 1.125-30.874 L 1.125,145.664 c 66.202,77.235, 88.27-77.236, 132.403,55.168
	C 89.395,333.236, 67.327,178.765, 1.125,256L 1.125,410.472 l 176.538,0 C 254.898,476.674, 100.428,498.74, 232.831,542.874z" data-tags="puzzle" />
<glyph unicode="&#xe05c;" d="M 480.616,135.103l-102.455,0 l-49.178-147.536l-24.589,0 l-28.689,381.133l-32.785-233.597l-61.473,0 l-57.375,36.884l-40.981-36.884L 1.125,135.103 
	l0,28.688 l 81.964,0 l 40.981,36.884l 57.375-36.884l 31.975,0 l 49.989,360.642l 28.689-4.098l 36.883-446.706l 36.885,90.161l 110.652,0 l 65.571,53.277L 574.875,217.066 
	l0-28.688 l-32.786,0 L 480.616,135.103z" data-tags="pulse" />
<glyph unicode="&#xe05d;" d="M 124.072,419.928L 124.072,542.875 l 327.856,0 l0-122.947 l-40.981,0 L 410.947,501.892 l-245.894,0.001l0-81.965 L 124.072,419.928 z M 1.125,399.437l 573.75,0 L 574.875,112.562 l-102.455,0 l0,61.473 
	l 40.981,0 L 513.402,337.964 L 62.598,337.964 l0-163.929 l 40.983,0 L 103.581,112.562 L 1.125,112.562 L 1.125,399.437 z M 124.072,255.999l 40.983,0 l0-163.928 l 81.964,0 l0-81.965 l 163.929,0.001l0,245.891 l 40.981,0 
	L 451.929-30.875L 226.528-30.875 l-102.456,102.455L 124.072,255.999 z M 369.964,51.089l-81.964,0 l0,40.983 l 81.964,0 L 369.964,51.089 z M 390.456,133.054L 185.545,133.054 l0,40.981 
	l 204.912,0 L 390.457,133.054 z M 390.456,215.019L 185.545,215.019 l0,40.983 l 204.912,0 L 390.457,215.019 z" data-tags="printer" />
<glyph unicode="&#xe05e;" d="M 265.933,278.067L 265.933,542.875 l 66.202,0 l0-264.808 L 265.933,278.067 z M 552.808,233.933C 552.808,87.684, 434.249-30.875, 288-30.875
	S 23.192,87.684, 23.192,233.933c0,123.39, 84.393,227.069, 198.606,256.465l0-92.76 c-64.698-26.19-110.337-89.617-110.337-163.706
	c0-97.499, 79.039-176.54, 176.54-176.54s 176.54,79.039, 176.54,176.54c0,65.343-35.503,122.396-88.27,152.92L 376.271,483.672 
	C 479.121,447.32, 552.808,349.232, 552.808,233.933z" data-tags="power" />
<glyph unicode="&#xe05f;" d="M 227.012,340.288l 9.274,9.016l-193.5,193.5C 27.843,530.014, 13.91,516.074, 1.125,501.124l 163.671-163.671
	c 12.107,3.478, 24.388,5.218, 36.839,5.218C 210.222,342.671, 218.681,341.877, 227.012,340.288z M 369.282,132.967L 533.115-30.804
	c 14.982,12.814, 28.947,26.782, 41.76,41.765L 381.392,204.198l-9.081-9.016l 1.738-12.495l 0.515-12.494l-1.224-18.903L 369.282,132.967z
	 M 484.441,315.105L 346.998,452.612c-7.127-6.999-12.441-14.727-15.941-23.186c-3.499-8.459-5.249-17.111-5.249-25.956
	c0-8.716, 1.762-17.304, 5.282-25.762l-85.789-85.724c-7.212,3.736-14.716,6.548-22.509,8.436c-7.793,1.889-15.704,2.835-23.733,2.835
	c-12.625,0-24.839-2.287-36.647-6.86c-11.809-4.573-22.349-11.475-31.624-20.707l 73.1-72.907l-46.919-54.005l-35.198-42.669
	l-22.253-29.691c-5.173-7.643-7.761-12.666-7.761-15.072l-0.192-1.030l 0.387-0.192l0-0.645 l 0.386,0.451l 0.837-0.192
	c 2.404,0, 7.428,2.544, 15.072,7.632l 29.692,22.123l 42.668,35.326l 54.262,46.983l 72.649-72.843
	c 9.276,9.276, 16.188,19.816, 20.739,31.624c 4.552,11.808, 6.828,24.002, 6.828,36.582c0,8.073-0.935,15.994-2.802,23.766
	c-1.867,7.772-4.691,15.285-8.469,22.542l 85.724,85.725c 8.459-3.478, 17.046-5.218, 25.762-5.218c 8.889,0, 17.551,1.751, 25.989,5.249
	C 469.724,302.729, 477.442,308.021, 484.441,315.105z" data-tags="pin1" />
<glyph unicode="&#xe060;" d="M 574.687,342.193L 374.1,542.875c-10.402-10.215-18.157-21.494-23.265-33.839c-5.106-12.345-7.66-24.972-7.66-37.881
	c0-12.72, 2.571-25.253, 7.709-37.598L 225.68,308.45c-10.527,5.452-21.477,9.556-32.851,12.313
	c-11.374,2.757-22.919,4.137-34.636,4.137c-18.424,0-36.251-3.337-53.484-10.011c-17.234-6.675-32.617-16.747-46.153-30.22
	l 106.685-106.403l-68.475-78.815l-51.369-62.272l-32.477-43.332c-7.55-11.154-11.326-18.486-11.326-21.995l-0.281-1.503l 0.565-0.283L 1.877-30.875 
	l 0.563,0.658l 1.222-0.281c 3.509,0, 10.842,3.711, 21.995,11.139l 43.333,32.288l 62.271,51.556l 79.192,68.569l 106.026-106.309
	c 13.536,13.536, 23.625,28.919, 30.268,46.153c 6.642,17.233, 9.964,35.029, 9.964,53.388c0,11.782-1.365,23.343-4.089,34.685
	c-2.725,11.342-6.847,22.309-12.346,32.898L 465.37,318.977c 12.345-5.076, 24.877-7.615, 37.598-7.615
	c 12.972,0, 25.614,2.555, 37.928,7.66C 553.209,324.131, 564.473,331.855, 574.687,342.193z" data-tags="pin0" />
<glyph unicode="&#xe061;" d="M 39.995,195.674L 348.326,504.005c 51.826,51.826, 135.853,51.826, 187.679,0c 51.826-51.825, 51.826-135.853,0-187.679
	L 227.674,7.995c-51.826-51.826-135.853-51.826-187.679,0C-11.832,59.821-11.832,143.848, 39.995,195.674z M 241.288,322.746
	l 112.506-112.506l 129.278,129.277c 31.068,31.068, 35.958,86.33, 4.89,117.398c-31.068,31.068-81.439,31.068-112.507,0L 241.288,322.746
	z" data-tags="pill" />
<glyph unicode="&#xe062;" d="M 468.105,29.758c 1.595-3.763, 2.394-7.581, 2.394-11.459c0-5.358-1.425-10.362-4.276-15.009
	c-2.85-4.646-6.842-8.196-11.972-10.647l-24.117-11.289c-9.407-4.276-18.829-7.382-28.264-9.322
	c-9.435-1.938-18.97-2.907-28.607-2.907c-15.507,0-30.829,2.58-45.966,7.739c-15.137,5.159-29.618,12.543-43.444,22.149
	c-13.826,9.607-26.795,21.224-38.912,34.849c-12.116,13.626-22.961,28.821-32.541,45.583c-6.101,9.293-12.514,19.897-19.242,31.813
	c-5.7,10.147-12.214,22.305-19.54,36.474c-7.327,14.167-14.725,29.889-22.193,47.163c-7.64,17.276-13.698,32.37-18.174,45.282
	c-4.475,12.914-7.939,23.646-10.391,32.197c-2.85,9.978-4.817,18.53-5.901,25.657c-3.933,13.227-6.826,26.382-8.681,39.466
	c-1.852,13.085-2.779,26.041-2.779,38.87c0,16.761, 1.682,32.896, 5.046,48.404c 3.365,15.507, 8.524,29.932, 15.479,43.272
	c 6.956,13.34, 15.778,25.271, 26.47,35.79c 10.69,10.52, 23.332,19.086, 37.927,25.7l 23.775,10.946C 217.96,542.077, 221.723,542.875, 225.486,542.875
	c 5.302,0, 10.233-1.468, 14.795-4.404c 4.561-2.935, 7.982-6.997, 10.262-12.187l 45.754-103.905c 1.596-3.763, 2.394-7.526, 2.394-11.289
	c0-5.53-1.425-10.647-4.276-15.351c-2.851-4.704-6.869-8.225-12.059-10.567l-47.035-21.63c-6.215-2.852-10.976-7.041-14.282-12.572
	c-3.308-5.53-4.96-11.489-4.96-17.874c0-4.846, 0.911-9.406, 2.736-13.682l 77.225-176.341c 3.022-6.785, 7.197-11.774, 12.528-14.966
	c 5.331-3.193, 11.132-4.79, 17.404-4.79c 4.276,0, 8.637,0.97, 13.084,2.909l 47.035,21.636c 3.706,1.595, 7.441,2.394, 11.204,2.394
	c 5.187,0, 10.090-1.468, 14.709-4.404c 4.617-2.936, 8.094-6.97, 10.432-12.102L 468.105,29.758z" data-tags="phone_up1" />
<glyph unicode="&#xe063;" d="M 551.305,225.243l 9.468-2.082l 7.345-5.775l 4.911-8.603l 1.847-10.331l0-29.697 c0-20.793-4.256-39.858-12.767-57.195
	c-8.512-17.336-20.086-32.511-34.725-45.527c-14.639-13.016-31.74-23.661-51.302-31.937c-19.563-8.275-40.394-13.644-62.497-16.105
	l-44.703-4.164l-44.544-3.063l-49.732-1.335l-46.588,1.572l-37.867,3.063l-34.568,4.715c-21.317,2.933-41.376,8.576-60.18,16.93
	c-18.803,8.354-35.17,18.987-49.102,31.897c-13.932,12.912-24.945,27.969-33.036,45.174C 5.171,129.983, 1.125,148.879, 1.125,169.463l0,30.012 
	l 1.964,9.899l 5.421,8.25l 7.973,5.538l 9.703,2.082l 94.041,0 l 9.546-2.082l 7.738-5.656l 5.147-8.248l 1.846-10.096l0-64.029 l 2.082-11.549
	l 5.773-9.468l 8.721-6.481c 3.351-1.623, 6.993-2.436, 10.92-2.436l 227.834,0 c 3.929,0, 7.777,0.812, 11.549,2.436l 9.82,6.481l 6.757,9.703
	c 1.728,3.771, 2.592,7.7, 2.592,11.784l0,62.85 l 1.964,10.331l 5.499,8.603l 8.092,5.775l 9.742,2.082L 551.305,225.242 z M 326.25,244.384l-76.5,0 
	L 249.75,383.040l-57.375-57.375l0,76.501 l 95.625,100.406l 95.625-100.406l0-76.501 l-57.375,57.375L 326.25,244.384 z" data-tags="phone_up0" />
<glyph unicode="&#xe064;" d="M 107.895,482.242c-1.595,3.763-2.394,7.581-2.394,11.459c0,5.358, 1.425,10.362, 4.276,15.009
	c 2.85,4.646, 6.842,8.196, 11.972,10.647l 24.117,11.289c 9.407,4.276, 18.829,7.382, 28.264,9.322C 183.566,541.906, 193.101,542.875, 202.737,542.875
	c 15.507,0, 30.829-2.58, 45.966-7.739c 15.137-5.159, 29.618-12.543, 43.444-22.149c 13.826-9.607, 26.795-21.223, 38.912-34.849
	c 12.116-13.626, 22.961-28.821, 32.541-45.583c 6.101-9.293, 12.514-19.897, 19.242-31.813c 5.7-10.147, 12.214-22.305, 19.54-36.474
	c 7.327-14.167, 14.725-29.889, 22.193-47.163c 7.64-17.276, 13.698-32.37, 18.174-45.282c 4.475-12.914, 7.939-23.646, 10.391-32.197
	c 2.85-9.978, 4.817-18.53, 5.901-25.657c 3.933-13.227, 6.826-26.382, 8.681-39.466c 1.852-13.085, 2.779-26.041, 2.779-38.87
	c0-16.761-1.682-32.896-5.046-48.404c-3.365-15.507-8.524-29.932-15.479-43.272c-6.956-13.34-15.778-25.271-26.47-35.79
	c-10.69-10.52-23.332-19.086-37.927-25.7l-23.775-10.946c-3.763-1.597-7.526-2.394-11.289-2.394c-5.302,0-10.233,1.468-14.795,4.404
	c-4.561,2.935-7.982,6.997-10.262,12.187l-45.754,103.905c-1.596,3.763-2.394,7.526-2.394,11.289c0,5.53, 1.425,10.647, 4.276,15.351
	c 2.851,4.704, 6.869,8.225, 12.059,10.567l 47.035,21.63c 6.215,2.852, 10.976,7.041, 14.282,12.572c 3.308,5.53, 4.96,11.489, 4.96,17.874
	c0,4.846-0.911,9.406-2.736,13.682l-77.225,176.341c-3.022,6.785-7.198,11.774-12.528,14.966c-5.331,3.193-11.132,4.79-17.404,4.79
	c-4.276,0-8.637-0.97-13.085-2.909l-47.035-21.636c-3.706-1.595-7.441-2.394-11.204-2.394c-5.187,0-10.090,1.468-14.709,4.404
	c-4.617,2.936-8.094,6.97-10.432,12.102L 107.895,482.242z" data-tags="phone_down1" />
<glyph unicode="&#xe065;" d="M 24.695,286.757l-9.468,2.082l-7.345,5.775l-4.911,8.603L 1.125,313.548l0,29.697 c0,20.793, 4.256,39.858, 12.767,57.195
	c 8.512,17.336, 20.086,32.511, 34.725,45.527c 14.639,13.016, 31.74,23.661, 51.302,31.937c 19.563,8.275, 40.394,13.644, 62.497,16.105
	l 44.703,4.164l 44.544,3.063l 49.732,1.335l 46.588-1.572l 37.867-3.063l 34.568-4.715c 21.317-2.933, 41.376-8.576, 60.18-16.93
	c 18.803-8.354, 35.17-18.987, 49.102-31.897c 13.932-12.912, 24.945-27.969, 33.036-45.174C 570.83,382.017, 574.875,363.121, 574.875,342.537
	l0-30.012 l-1.964-9.899l-5.421-8.25l-7.973-5.538l-9.703-2.082l-94.041,0 l-9.546,2.082l-7.738,5.656l-5.147,8.248l-1.846,10.096L 431.496,376.87 
	l-2.082,11.549l-5.773,9.468l-8.721,6.481c-3.351,1.623-6.993,2.436-10.92,2.436L 176.165,406.804 c-3.929,0-7.777-0.812-11.549-2.436
	l-9.82-6.481l-6.757-9.703c-1.728-3.771-2.592-7.7-2.592-11.784l0-62.85 l-1.964-10.331l-5.499-8.603l-8.092-5.775l-9.742-2.082
	L 24.695,286.759 z M 249.75,267.616l 76.5,0 L 326.25,128.961l 57.375,57.375l0-76.501 l-95.625-100.406l-95.625,100.406l0,76.501 l 57.375-57.375L 249.75,267.616 z" data-tags="phone_down0" />
<glyph unicode="&#xe066;" d="M 288.001,542.875c-58.68,0-106.251-47.569-106.251-106.249c0-58.681, 47.571-106.251, 106.251-106.251
	c 58.681,0, 106.251,47.569, 106.251,106.251C 394.251,495.306, 346.68,542.875, 288.001,542.875z M 181.751,181.626l-8.131-183.905
	C 211.403-20.6, 253.815-30.875, 298.626-30.875c 36.762,0, 71.909,6.914, 104.211,19.515l-8.586,192.986
	c 14.166-7.084, 42.5-63.75, 42.5-63.75s 14.166-21.251, 21.249-106.251l 63.748,21.249l-21.249,106.251
	c0,0-42.499,148.75-127.502,148.749l-169.999,0 c-84.999,0.001-127.498-148.749-127.498-148.749l-21.251-106.249l 63.75-21.25
	c 7.084,84.999, 21.251,106.251, 21.251,106.251S 167.584,174.542, 181.751,181.626z" data-tags="people" />
<glyph unicode="&#xe067;" d="M 207.375,44.121L 412.458,249.205c 27.183,27.183, 27.183,71.256,0,98.44s-71.256,27.183-98.44-0.001L 149.951,183.578
	l 32.812-32.814l 164.068,164.068c 9.061,9.062, 23.752,9.062, 32.813,0c 9.062-9.061, 0.858-15.549-8.202-24.611L 166.358,85.138
	c-22.654-22.653-51.178-30.857-73.832-8.204c-22.653,22.653-22.653,59.381,0,82.033l 254.304,254.304
	c 36.244,36.244, 95.010,36.244, 131.254,0c 36.244-36.244, 36.244-95.010,0-131.254L 281.205,85.138l 49.219-49.221l 196.879,196.879
	c 63.428,63.43, 63.428,166.266,0,229.694s-166.266,63.428-229.694,0L 35.105,199.985c-45.306-45.306-45.306-118.761,0-164.068
	c 45.305-45.305, 118.761-45.305, 164.066,0l 7.799,8.607L 207.375,44.121z" data-tags="paperclip" />
<glyph unicode="&#xe068;" d="M 45.26,542.875l 485.481,0 l0-573.75 L 45.26-30.875 L 45.26,542.875 z M 89.395,498.74l0-88.269 l 88.269,0 L 177.663,498.74 L 89.395,498.74 z M 89.395,13.259l 88.269,0 l0,44.135 L 89.395,57.394 L 89.395,13.259 
	z M 177.663,123.596L 89.395,123.596 l0-44.135 l 88.269,0 L 177.663,123.596 z M 177.663,189.798L 89.395,189.798 l0-44.135 l 88.269,0 L 177.663,189.798 z M 177.663,256L 89.395,256 l0-44.135 
	l 88.269,0 L 177.663,256 z M 177.663,322.202L 89.395,322.202 l0-44.135 l 88.269,0 L 177.663,322.202 z M 177.663,388.405L 89.395,388.405 l0-44.135 l 88.269,0 L 177.663,388.405 z M 486.606,13.259
	l0,44.135 l-286.875,0 l0-44.135 L 486.606,13.259 z M 486.606,123.596l-286.875,0 l0-44.135 l 286.875,0 L 486.606,123.596 z M 486.606,189.798l-286.875,0 l0-44.135 l 286.875,0 L 486.606,189.798 z M 486.606,256
	l-286.875,0 l0-44.135 l 286.875,0 L 486.606,256 z M 486.606,322.202l-286.875,0 l0-44.135 l 286.875,0 L 486.606,322.202 z M 486.606,388.405l-286.875,0 l0-44.135 l 286.875,0 L 486.606,388.405 z M 486.606,498.74l-286.875,0 
	l0-88.269 l 286.875,0 L 486.606,498.74 z" data-tags="paper" />
<glyph unicode="&#xe069;" d="M 254.712-12.363l-79.873,243.181l-30.666,0 l0,43.458 l 118.375,0 l0-43.458 l-33.823,0 l 47.033-153.893l 72.636,197.319l 26.737,0 
	l 72.636-197.319l 40.231,153.893l-39.428,0 l0,43.458 L 566.944,274.276 l0-43.458 l-26.377,0 l-74.849-243.181l-27.752,0 l-77.53,199.96l-77.97-199.96
	L 254.712-12.363 z M 9.056,524.363L 288,524.363 l 144.281-144.281L 432.281,192.516 l-38.475,83.362l0,56.109 L 239.906,331.988 l0,153.9 L 47.531,485.888l0-423.225 l 155.275,0 l 13.741-38.474L 9.056,24.189 
	L 9.056,524.363 z M 320.978,24.189l 13.741,38.474l 46.72,0 l 16.489-38.474L 320.978,24.189 z M 278.381,476.268l0-105.805 l 105.806,0 L 278.381,476.268z" data-tags="page_word" />
<glyph unicode="&#xe06a;" d="M 57.15,534.944l 278.944,0 L 480.375,390.662l0-243.753 c 22.416-7.923, 38.475-29.301, 38.475-54.429l0-57.712 c0-31.875-25.839-57.712-57.712-57.712
	l-211.612-0.001c-31.875,0-57.712,25.839-57.712,57.712l-134.662,0.001L 57.15,534.944 z M 441.899,342.568l-153.9,0 L 287.999,496.469 l-192.375,0 l0-423.225 l 96.186-0.001L 191.81,92.481 
	c0,31.873, 25.839,57.712, 57.712,57.712l 192.376,0 L 441.899,342.568 z M 326.474,486.849l0-105.806 l 105.806,0 L 326.474,486.849z M 461.137,111.72l-57.712,0 l0-19.239 l 19.238,0 
	l0-76.95 l 19.238,0 l0,76.95 L 461.137,92.481 L 461.137,111.72 z M 384.186,111.72l-19.238,0 l0-38.475 l-19.238,0 l0,38.475 l-19.239,0 l0-38.475 L 345.713,73.245 l0-19.238 l-19.239,0 l0-38.475 L 345.713,15.532 l0,38.475 l 19.238,0 
	l0-38.475 l 19.238,0 l0,38.475 l-19.238,0 l0,19.238 l 19.238,0 L 384.188,111.72 z M 307.238,111.72l-57.712,0 l0-19.239 l 19.238,0 l0-76.95 L 288,15.531 l0,76.95 l 19.238,0 L 307.238,111.72 z" data-tags="page_txt" />
<glyph unicode="&#xe06b;" d="M 76.388,506.087L 355.331,506.087 L 499.613,361.806L 499.611,5.913L 76.388,5.913 L 76.388,506.087 z M 114.862,467.611l0-423.225 l 346.275,0 L 461.137,313.713 L 307.238,313.713 L 307.238,467.611 L 114.862,467.611 z
	 M 345.713,457.993l0-105.806 l 105.806,0 L 345.713,457.993z M 153.338,429.138l 115.424,0 l0-38.475 L 153.338,390.662 L 153.338,429.138 z M 153.338,352.187l 115.424,0 l0-38.475 L 153.338,313.713 L 153.338,352.187 z
	 M 153.338,275.238L 422.662,275.238 L 422.662,236.762 L 153.338,236.762 L 153.338,275.238 z M 153.338,198.287L 422.662,198.287 l0-38.475 L 153.338,159.812 L 153.338,198.287 z M 422.662,121.338l0-38.475 L 153.338,82.863 l0,38.475 L 422.662,121.338 z" data-tags="page_text" />
<glyph unicode="&#xe06c;" d="M 202.743,26.461l 81.817,79.612c-10.564,18.287-12.72,39.512-12.72,62.15c0,68.723, 51.823,124.434, 120.546,124.434
	c 68.724,0, 124.435-55.711, 124.435-124.434c0-68.724-55.711-120.546-124.435-120.546c-21.475,0-41.679,1.551-59.311,11.13
	l-82.45-80.228c-12.148-12.149-35.733-12.149-47.882,0C 190.594-9.273, 190.594,14.313, 202.743,26.461z M 392.387,245.993
	c-42.951,0-77.771-34.82-77.771-77.771c0-42.953, 34.829-77.772, 77.771-77.772c 42.953,0, 77.772,34.82, 77.772,77.772
	C 470.158,211.174, 435.339,245.993, 392.387,245.993z M 59.178,542.534l 278.945,0 l 144.281-144.281l-0.001-115.425l-38.474,24.047l0,43.284 
	l-153.9,0 l0,153.9 l-192.375-0.001l0-423.225 l 129.853,0 l-38.475-38.475l-129.853,0.001L 59.179,542.534 z M 328.503,494.44l0-105.806 l 105.806,0 L 328.503,494.44z" data-tags="page_search" />
<glyph unicode="&#xe06d;" d="M 418.335,44.387c 15.937,0, 28.856-12.919, 28.856-28.856s-12.919-28.856-28.856-28.856c-15.936,0-28.856,12.919-28.856,28.856
	S 402.398,44.387, 418.335,44.387z M 424.106,275.238c 50.998,0, 92.34-32.987, 92.34-80.797c0-17.314-11.543-46.17-34.627-57.712
	c-23.085-11.543-34.627-27.046-34.627-46.17l0-23.085 l-57.712,0 l0,17.314 c0,39.254, 34.627,63.484, 46.17,75.026c 23.085,23.085, 23.085,26.288, 23.085,34.627
	c0,19.124-15.504,34.627-34.627,34.627c-19.124,0-34.627-15.504-34.627-34.627l0-17.314 l-57.712,0 l0,11.543 
	C 331.766,236.479, 373.108,275.238, 424.106,275.238z M 59.554,525.325l 278.944,0 l 144.282-144.281l-0.001-92.594
	c-9.936,11.089-23.188,19.54-38.474,24.618L 444.305,332.95 l-153.9,0 l0,153.9 l-192.375-0.001L 98.030,63.625 l 258.899,0 c-2.575-5.892-4.003-12.397-4.003-19.238
	c0-6.84, 1.428-13.347, 4.003-19.239l-297.373,0.001L 59.555,525.325 z M 328.88,477.23l0-105.806 l 105.806,0 L 328.88,477.23z" data-tags="page_question" />
<glyph unicode="&#xe06e;" d="M 57.15,534.944l 278.944,0 L 480.375,390.662l0-243.753 c 22.416-7.923, 38.475-29.301, 38.475-54.429l0-57.712 c0-31.875-25.839-57.712-57.712-57.712L 172.575-22.944 
	c-31.875,0-57.712,25.838-57.712,57.712L 57.15,34.769 L 57.15,534.944 z M 441.9,342.569L 288,342.569 L 288,496.469 L 95.625,496.468l0-423.225 l 19.238,0 l0,19.238 c0,31.875, 25.838,57.712, 57.712,57.712
	l 269.325,0.001L 441.9,342.569 z M 326.474,486.849l0-105.805 l 105.806,0 L 326.474,486.849z M 172.574,15.531l 19.238,0 l0,19.238 l 38.475,0 l0,19.238 l 19.238,0 l0,38.475 l-19.238,0 l0,19.238 
	l-57.712,0 L 172.574,15.531 z M 230.286,54.005l-38.475,0 l0,38.475 l 38.475,0 L 230.286,54.005 z M 461.137,15.531l0,57.712 l-19.239,0 l-19.238,0 l0-19.238 L 441.9,54.006 l0-19.238 l-38.475,0 l0,57.711 
	l 57.712,0.001l0,19.238 l-57.712,0 l0-19.239 l-19.239,0 l 0.001-57.711l 19.238,0 l0-19.239 L 461.137,15.53 z M 345.713,54.006l-19.238,0 l0,19.238 L 307.238,73.244 L 307.238,92.481 L 288,92.481 l0,19.238 l-19.239,0 
	l0-96.188 L 288,15.531 l0,57.712 l 19.238,0 l0-19.238 L 326.475,54.006 l0-19.238 l 19.238,0 l0-19.239 l 19.238,0 l0,96.188 l-19.238,0 L 345.713,54.006 z" data-tags="page_png" />
<glyph unicode="&#xe06f;" d="M 57.15,534.944l 278.944,0 L 480.375,390.662l0-243.753 c 22.416-7.923, 38.475-29.301, 38.475-54.429l0-57.712 c0-31.875-25.839-57.712-57.712-57.712L 211.049-22.944 
	c-31.873,0-57.712,25.838-57.712,57.711L 57.15,34.769L 57.15,534.944 z M 441.899,342.569l-153.9,0 L 288,496.468L 95.624,496.468 l0-423.225 l 57.712,0 l0,19.238 
	c0,31.875, 25.839,57.712, 57.712,57.712l 230.85,0 L 441.899,342.569 z M 326.474,486.849l0-105.806 l 105.806,0 L 326.474,486.849z M 211.048,15.531l 19.239,0 l0,19.238 l 38.474,0 
	l0,19.238 l 19.238,0 l0,38.475 l-19.238,0 l0,19.238 l-57.712,0 L 211.048,15.531 z M 268.76,54.005l-38.474,0 l0,38.475 l 38.474,0 L 268.76,54.005 z M 307.238,111.719l0-96.188 l 57.712,0 l0,19.238 l 19.238,0 
	l0,57.712 l-19.238,0 L 364.95,111.719 L 307.238,111.719 z M 364.95,34.768l-38.475,0 l0,57.712 l 38.475,0 L 364.95,34.768 z M 403.425,111.719l0-96.188 l 19.238,0 l0,38.475 l 38.475,0 l0,19.238 l-38.475,0 l0,19.238 l 38.475,0 
	L 461.138,111.719 L 403.425,111.719 z" data-tags="page_pdf" />
<glyph unicode="&#xe070;" d="M 220.67,130.956l 192.375,0 l-105.807,96.188l 86.569,0 L 528.469,102.1L 393.806-22.944L 307.238-22.944 l 105.807,96.186l-192.375,0 L 220.67,130.956 z M 47.531,534.944l 278.944,0 
	L 470.756,390.662l-0.002-187.566l-38.474,28.856l 0.001,110.616l-153.9,0 L 278.381,496.469 l-192.375-0.001l0-423.225 l 110.614,0 l 14.428-38.475L 47.531,34.769L 47.531,534.944 z
	 M 316.856,486.849l0-105.805 l 105.806,0 L 316.856,486.849z" data-tags="page_next" />
<glyph unicode="&#xe071;" d="M 427.007,275.238l 63.060-36.791l-77.556-92.34l0-1.443 l 115.958,23.085l0-72.863 l-116.684,19.479l0-1.443 l 78.281-89.454L 426.282-13.325
	l-42.039,111.097l-1.449,0 L 341.478-13.325l-62.334,36.791l 77.556,90.177l-0.726,1.442L 242.179,94.885l0,72.863 l 113.072-23.085l0,1.443 
	l-76.106,91.618l 64.51,37.513l 39.864-111.817l 1.451,0 L 427.007,275.238z M 47.531,525.325L 326.475,525.325 l 144.281-144.281l-0.001-91.378L 432.281,294.475l0,38.475 
	l-153.9,0 l0,153.9 l-192.375-0.001L 86.006,63.625 l 177.947,0 l-4.809-38.474L 47.531,25.151 L 47.531,525.325 z M 316.856,477.231l0-105.806 l 105.806,0 L 316.856,477.231z" data-tags="page_new" />
<glyph unicode="&#xe072;" d="M 143.718,457.994l 144.281,0 l-19.238,19.236L 86.005,477.231l 0.001-384.75l 57.711,0 L 143.718,457.994 z M 384.188,457.994L 528.469,313.713l0-317.419 L 143.72-3.706 
	l-0.001,57.712L 47.531,54.006 L 47.531,515.706 l 240.469,0 l 57.712-57.712L 384.188,457.994 z M 182.194,419.519l0-384.75 l 307.8,0 l 0.001,230.85l-153.9,0 l0,153.9 L 182.194,419.519 z M 374.57,409.899
	l0-105.806 l 105.805,0 L 374.57,409.899z" data-tags="page_multi" />
<glyph unicode="&#xe073;" d="M 345.713,352.187l 105.806,0 L 345.713,457.994L 345.713,352.187 z M 461.137,313.713L 345.713,313.713 l-38.475,0 L 307.238,467.612 l-192.375-0.001L 114.863,179.050 L 76.388,179.050 L 76.388,506.087 l 278.944,0 L 499.613,361.806
	L 499.611,5.913L 76.388,5.913 l0,76.95 l 38.475,0 l0-38.475 l 346.275,0 L 461.138,313.713 z M 326.474,159.814l0-57.712 L 76.388,102.101 l0,57.712 L 326.474,159.814 z" data-tags="page_minus" />
<glyph unicode="&#xe074;" d="M 57.15,534.944l 278.944,0 L 480.375,390.662l0-243.753 c 22.416-7.923, 38.475-29.301, 38.475-54.429l0-57.712 c0-31.875-25.839-57.712-57.712-57.712L 211.050-22.944 
	c-31.875,0-57.712,25.838-57.712,57.712L 57.15,34.769 L 57.15,534.944 z M 441.9,342.569L 288,342.569 L 288,496.469 L 95.625,496.468l0-423.225 l 57.712,0 L 153.338,92.481 c0,31.873, 25.838,57.712, 57.712,57.712
	l 230.85,0 L 441.9,342.569 z M 326.475,486.85l0-105.806 l 105.805,0 L 326.475,486.85z M 191.813,54.006l0-19.238 L 211.050,34.769 l0,19.238 L 191.813,54.006 z M 211.050,34.769l0-19.239 L 249.525,15.53 L 249.525,34.769 
	L 211.050,34.769 z M 249.525,34.769L 268.762,34.769 l0,76.95 L 249.525,111.719 l-19.238,0 l0-19.238 l 19.238,0 L 249.525,34.769 z M 288,15.531l 19.238,0 L 307.238,34.769 l 38.475,0 l0,19.238 l-38.475,0 l0,38.475 l 38.475,0 l0,19.238 l-38.475,0 
	L 288,111.719 L 288,15.531 z M 345.713,54.006l 19.238,0 l0,38.475 l-19.238,0 L 345.713,54.006 z M 461.137,15.531l0,57.712 l-19.239,0 l-19.238,0 l0-19.238 L 441.9,54.006 l0-19.238 l-38.475,0 l0-19.239 L 461.137,15.53 z
	 M 403.425,34.769l0,57.711 l-19.239,0 l 0.001-57.711L 403.425,34.769 z M 403.425,92.48l 57.712,0.001l0,19.238 l-57.712,0 L 403.425,92.48 z" data-tags="page_jpg" />
<glyph unicode="&#xe075;" d="M 76.388,506.087L 355.331,506.087 L 499.613,361.806L 499.611,5.913L 76.388,5.913 L 76.388,506.087 z M 114.862,467.611l0-423.225 l 346.275,0 L 461.137,313.713 L 307.238,313.713 L 307.238,467.612 L 114.862,467.611z
	 M 345.713,457.993L 345.713,352.187 l 105.806,0 L 345.713,457.993z M 153.338,140.575l 38.474-38.475L 345.713,256l 57.712-57.712l 38.475,38.475L 441.9,63.625 L 134.1,63.625 l0,57.712 L 153.338,140.575z
	 M 230.287,448.375c0-53.123-43.065-96.186-96.188-96.186L 134.1,448.375 L 230.287,448.375 z" data-tags="page_image" />
</font>
</defs>
</svg>
